<svg width="100%" height="100%" viewBox="0 0 34 28" fill="none" xmlns="http://www.w3.org/2000/svg">
<path d="M32.4062 0.71875H1.59375C1.17106 0.71875 0.765685 0.886663 0.466799 1.18555C0.167912 1.48443 0 1.88981 0 2.3125L0 22.5C0 22.9227 0.167912 23.3281 0.466799 23.627C0.765685 23.9258 1.17106 24.0938 1.59375 24.0938H11.5387C11.4172 23.75 11.4172 23.375 11.5387 23.0312H1.59375C1.45285 23.0312 1.31773 22.9753 1.2181 22.8757C1.11847 22.776 1.0625 22.6409 1.0625 22.5V21.9688H11.2917L10.378 20.9062H1.0625V2.3125C1.0625 2.1716 1.11847 2.03648 1.2181 1.93685C1.31773 1.83722 1.45285 1.78125 1.59375 1.78125H32.4062C32.5471 1.78125 32.6823 1.83722 32.7819 1.93685C32.8815 2.03648 32.9375 2.1716 32.9375 2.3125V20.9062H18.6416L18.4848 21.0417L18.4583 21.0656L18.4291 21.0869C18.0492 21.4083 17.6641 21.7031 17.2922 21.9688H32.9375V22.5C32.9375 22.6409 32.8815 22.776 32.7819 22.8757C32.6823 22.9753 32.5471 23.0312 32.4062 23.0312H15.6559C15.6427 23.0312 15.6347 23.1375 15.6294 23.1588C15.538 23.5031 15.3365 23.8081 15.0556 24.0273L14.8856 24.1575V26.2188H12.4844C12.3435 26.2188 12.2084 26.2747 12.1087 26.3743C12.0091 26.474 11.9531 26.6091 11.9531 26.75C11.9531 26.8909 12.0091 27.026 12.1087 27.1257C12.2084 27.2253 12.3435 27.2812 12.4844 27.2812H21.5156C21.6565 27.2812 21.7916 27.2253 21.8913 27.1257C21.9909 27.026 22.0469 26.8909 22.0469 26.75C22.0469 26.6091 21.9909 26.474 21.8913 26.3743C21.7916 26.2747 21.6565 26.2188 21.5156 26.2188H19.3906V24.0938H32.4062C32.8289 24.0938 33.2343 23.9258 33.5332 23.627C33.8321 23.3281 34 22.9227 34 22.5V2.3125C34 1.88981 33.8321 1.48443 33.5332 1.18555C33.2343 0.886663 32.8289 0.71875 32.4062 0.71875ZM15.9375 26.2188V24.0938H18.3281V26.2188H15.9375Z" fill="white"/>
<path d="M8.61156 18.8424L9.49078 18.1517L9.53593 18.2022C9.55685 18.2563 9.58646 18.3065 9.62359 18.351L11.6131 20.6194L13.3583 22.6514L12.7633 23.1057C12.7078 23.148 12.6612 23.2009 12.6262 23.2613C12.5912 23.3217 12.5684 23.3884 12.5592 23.4576C12.5499 23.5268 12.5544 23.5971 12.5723 23.6645C12.5902 23.732 12.6213 23.7953 12.6637 23.8507C12.7061 23.9062 12.7589 23.9528 12.8193 23.9878C12.8797 24.0228 12.9464 24.0456 13.0156 24.0548C13.0848 24.0641 13.1551 24.0596 13.2226 24.0417C13.29 24.0238 13.3533 23.9927 13.4087 23.9503L14.45 23.1535C14.5575 23.0702 14.6291 22.9489 14.6498 22.8145C14.6706 22.68 14.639 22.5428 14.5616 22.431C15.6725 21.8242 16.723 21.1126 17.6986 20.306L17.7437 20.2714L17.7969 20.2422C17.935 20.1253 18.0625 20.0058 18.2112 19.881C18.2378 19.8569 18.2618 19.8302 18.283 19.8013L19.9856 18.25C20.1488 18.0992 20.2737 17.9115 20.3498 17.7027C20.426 17.4939 20.4512 17.2699 20.4234 17.0494C20.3956 16.8288 20.3156 16.6181 20.19 16.4347C20.0645 16.2513 19.8969 16.1005 19.7014 15.9949C19.8433 15.7412 19.9034 15.45 19.8734 15.1609C19.8435 14.8718 19.7249 14.599 19.5341 14.3799C19.4401 14.2755 19.3308 14.1859 19.21 14.1143C19.3468 13.8627 19.4037 13.5756 19.3734 13.2909C19.343 13.0062 19.2267 12.7375 19.04 12.5205C18.9565 12.4275 18.8609 12.3462 18.7558 12.2788L20.0042 11.1419C20.2724 10.8927 20.4327 10.5487 20.4511 10.183C20.4694 9.81742 20.3444 9.45906 20.1025 9.18425C19.9839 9.04033 19.8373 8.92206 19.6715 8.83666C19.5057 8.75127 19.3243 8.70052 19.1383 8.68753C18.9593 8.67659 18.7799 8.70202 18.611 8.76228C18.4421 8.82254 18.2871 8.91639 18.1555 9.03816L14.4128 12.4488C14.4789 12.0287 14.4396 11.5988 14.2986 11.1977C14.2306 11.0265 14.1291 10.8706 14 10.7392C13.8709 10.6079 13.7168 10.5036 13.5469 10.4327C13.4054 10.3574 13.2494 10.3134 13.0894 10.3037C12.9295 10.2941 12.7693 10.3191 12.6198 10.3769C11.9956 10.6133 11.5387 11.3544 11.22 12.6427L9.80953 16.9511C9.71892 16.9039 9.61659 16.8837 9.51482 16.8931C9.41306 16.9026 9.31617 16.9411 9.23578 17.0043L7.96875 18.0083C7.91003 18.05 7.86038 18.1031 7.82282 18.1645C7.78527 18.2259 7.76058 18.2943 7.75027 18.3656C7.73996 18.4368 7.74424 18.5094 7.76284 18.579C7.78145 18.6485 7.81399 18.7135 7.8585 18.7701C7.90301 18.8267 7.95855 18.8736 8.02175 18.9081C8.08496 18.9426 8.15451 18.9638 8.22618 18.9706C8.29785 18.9773 8.37014 18.9694 8.43867 18.9474C8.5072 18.9254 8.57054 18.8896 8.62484 18.8424H8.61156ZM12.2427 12.9561V12.9163C12.5534 11.6493 12.9067 11.4128 12.9758 11.3783C12.9938 11.372 13.0135 11.372 13.0316 11.3783C13.0578 11.3939 13.0854 11.4072 13.1139 11.4182C13.159 11.4341 13.1999 11.4601 13.2335 11.4941C13.267 11.5282 13.2925 11.5694 13.3078 11.6147C13.5123 12.1114 13.1989 13.2403 12.9094 13.8858C12.8592 13.9977 12.8493 14.1236 12.8813 14.242C12.9134 14.3604 12.9854 14.464 13.0852 14.5354C13.185 14.6067 13.3064 14.6413 13.4288 14.6333C13.5512 14.6253 13.6671 14.5752 13.7567 14.4914L18.8594 9.82441C18.8866 9.79792 18.9192 9.77758 18.9549 9.76475C18.9906 9.75192 19.0287 9.7469 19.0666 9.75003C19.1093 9.75267 19.1511 9.76391 19.1895 9.78308C19.2278 9.80225 19.2619 9.82895 19.2897 9.86159C19.3496 9.92518 19.383 10.0093 19.383 10.0967C19.383 10.1841 19.3496 10.2682 19.2897 10.3318L14.1764 14.9908C14.0707 15.0916 14.0094 15.2301 14.0059 15.3761C14.0024 15.5221 14.0571 15.6634 14.1578 15.7691C14.2585 15.8748 14.3971 15.9361 14.5431 15.9396C14.6891 15.9431 14.8304 15.8884 14.9361 15.7877L17.7969 13.1607C17.8251 13.1349 17.8582 13.1151 17.8943 13.1023C17.9303 13.0895 17.9685 13.0841 18.0067 13.0863C18.0495 13.0889 18.0913 13.1002 18.1296 13.1193C18.168 13.1385 18.2021 13.1652 18.2298 13.1978C18.2893 13.2625 18.3211 13.3478 18.3186 13.4356C18.3162 13.5234 18.2795 13.6068 18.2166 13.668L17.6083 14.2232L17.5791 14.2471L15.3106 16.311C15.2583 16.3579 15.2157 16.4146 15.1853 16.478C15.155 16.5414 15.1373 16.6101 15.1335 16.6803C15.1297 16.7505 15.1397 16.8207 15.1631 16.887C15.1864 16.9533 15.2225 17.0143 15.2694 17.0667C15.3164 17.119 15.3731 17.1616 15.4365 17.192C15.4999 17.2223 15.5686 17.2399 15.6388 17.2438C15.7089 17.2476 15.7792 17.2376 15.8455 17.2142C15.9118 17.1909 15.9728 17.1548 16.0252 17.1078L16.1766 16.9697L16.2164 16.9405L18.3281 15.0227C18.3828 14.9784 18.4518 14.9557 18.522 14.9589C18.5648 14.9616 18.6066 14.9728 18.645 14.992C18.6833 15.0112 18.7174 15.0379 18.7452 15.0705C18.8051 15.1341 18.8385 15.2182 18.8385 15.3056C18.8385 15.393 18.8051 15.4771 18.7452 15.5407L16.4687 17.5807C16.3617 17.6804 16.2976 17.8178 16.2901 17.964C16.2826 18.1101 16.3323 18.2534 16.4286 18.3635C16.5249 18.4737 16.6603 18.542 16.8062 18.554C16.952 18.566 17.0968 18.5209 17.2098 18.428L18.8594 16.9458C18.8868 16.9198 18.9195 16.8999 18.9552 16.8876C18.9909 16.8752 19.0289 16.8706 19.0666 16.8741C19.1093 16.8769 19.1511 16.8882 19.1894 16.9073C19.2277 16.9265 19.2618 16.9531 19.2897 16.9857C19.3496 17.0492 19.383 17.1333 19.383 17.2207C19.383 17.3081 19.3496 17.3922 19.2897 17.4558L17.1116 19.44C16.1161 20.2654 15.0392 20.9871 13.8975 21.5942L12.4366 19.9261L10.625 17.8489L12.2427 12.9561Z" fill="white"/>
<path d="M22.9527 6.7188C22.9033 6.6694 22.8447 6.63022 22.7802 6.60348C22.7157 6.57675 22.6466 6.56299 22.5768 6.56299C22.507 6.56299 22.4379 6.57675 22.3734 6.60348C22.3089 6.63022 22.2503 6.6694 22.2009 6.7188L21.1384 7.7813C21.0891 7.83066 21.0499 7.88925 21.0232 7.95374C20.9965 8.01823 20.9828 8.08735 20.9828 8.15716C20.9828 8.22696 20.9965 8.29608 21.0232 8.36057C21.0499 8.42506 21.0891 8.48366 21.1384 8.53302C21.1878 8.58237 21.2464 8.62153 21.3109 8.64824C21.3754 8.67495 21.4445 8.6887 21.5143 8.6887C21.5841 8.6887 21.6532 8.67495 21.7177 8.64824C21.7822 8.62153 21.8408 8.58237 21.8902 8.53302L22.9527 7.47052C23.0021 7.42118 23.0412 7.36259 23.068 7.29809C23.0947 7.2336 23.1085 7.16447 23.1085 7.09466C23.1085 7.02484 23.0947 6.95571 23.068 6.89122C23.0412 6.82673 23.0021 6.76814 22.9527 6.7188Z" fill="white"/>
<path d="M22.3125 10.6637H22.3523L23.9461 10.5468C24.087 10.5366 24.2181 10.4708 24.3105 10.364C24.4029 10.2571 24.449 10.1179 24.4388 9.97704C24.4286 9.83614 24.3628 9.70508 24.256 9.61267C24.1491 9.52027 24.01 9.47409 23.8691 9.48431L22.2753 9.60118C22.1344 9.60611 22.0012 9.66681 21.9051 9.76993C21.809 9.87304 21.7577 10.0101 21.7627 10.151C21.7676 10.2919 21.8283 10.4251 21.9314 10.5212C22.0345 10.6174 22.1716 10.6686 22.3125 10.6637Z" fill="white"/>
<path d="M18.8859 5.74688L18.8328 7.34063C18.8303 7.4104 18.8416 7.47999 18.866 7.54539C18.8905 7.6108 18.9276 7.67075 18.9752 7.72182C19.0228 7.77288 19.08 7.81406 19.1435 7.843C19.2071 7.87194 19.2757 7.88807 19.3455 7.89047H19.3641C19.5018 7.89056 19.6342 7.83715 19.7333 7.7415C19.8324 7.64586 19.8905 7.51547 19.8953 7.37782L19.9484 5.78407C19.9509 5.71429 19.9396 5.64471 19.9152 5.5793C19.8908 5.5139 19.8537 5.45395 19.8061 5.40288C19.7585 5.35181 19.7013 5.31063 19.6377 5.28169C19.5742 5.25275 19.5056 5.23662 19.4358 5.23422C19.366 5.23174 19.2964 5.24303 19.231 5.26746C19.1656 5.29188 19.1057 5.32896 19.0546 5.37658C19.0035 5.42419 18.9623 5.4814 18.9334 5.54494C18.9045 5.60848 18.8883 5.6771 18.8859 5.74688Z" fill="white"/>
</svg>
