<svg width="100%" height="100%" viewBox="0 0 1407 1011" fill="none" xmlns="http://www.w3.org/2000/svg">
<g opacity="0.1">
<path fill-rule="evenodd" clip-rule="evenodd" d="M582.446 145.714C453.357 173.224 341.116 228.746 245.723 312.28C80.4658 376.96 -1.18643 453.955 0.766394 543.264C3.69563 677.228 58.4144 810.697 256.933 824.93C432.421 837.511 327.045 690.472 490.103 702.162C874.91 729.749 796.084 466.157 991.514 502.123C1320.7 562.704 1185.04 1069.46 1419.77 1036.75C1654.49 1004.04 1498.34 706.997 1514.32 485.556C1530.3 264.115 1213.33 56.3818 1126.2 10.4176C1039.07 -35.5466 1046.85 136.857 915.338 169.579C783.828 202.301 776.08 104.449 582.446 145.714Z" stroke="#252525"/>
<path fill-rule="evenodd" clip-rule="evenodd" d="M574.992 159.357C449.459 190.773 341.391 249.094 250.787 334.32C91.0892 403.444 13.7236 481.782 18.6896 569.336C26.1387 700.665 84.311 829.735 279.293 836.89C451.655 843.216 343.388 702.572 503.541 708.449C881.493 722.32 795.254 466.415 987.954 495C1312.54 543.147 1196.95 1044.97 1425.8 1004.83C1654.65 964.692 1491.51 678.62 1499.6 460.819C1507.68 243.017 1190.04 50.0813 1103.1 7.97409C1016.16 -34.1331 1029.68 134.744 901.953 171.356C774.227 207.969 763.292 112.233 574.992 159.357Z" stroke="#252525"/>
<path fill-rule="evenodd" clip-rule="evenodd" d="M568.23 173.09C446.366 208.199 342.526 269.096 256.71 355.783C102.678 429.043 29.5913 508.522 37.4506 594.22C49.2395 722.767 110.626 847.361 301.824 847.705C470.84 848.009 359.999 713.777 517.043 714.06C887.66 714.726 794.447 466.699 984.142 488.137C1303.67 524.247 1207.64 1020.37 1430.39 973.169C1653.14 925.968 1483.57 650.987 1484.04 437.1C1484.51 223.214 1166.83 44.8645 1080.24 6.54354C993.663 -31.7774 1012.68 133.386 888.845 173.667C765.011 213.947 751.026 120.427 568.23 173.09Z" stroke="#252525"/>
<path fill-rule="evenodd" clip-rule="evenodd" d="M562.157 186.892C444.064 225.476 344.499 288.727 263.461 376.647C115.185 453.734 46.3614 534.152 56.9906 617.902C72.9345 743.527 137.295 863.582 324.475 857.386C489.94 851.91 376.836 724.096 530.581 719.007C893.409 706.998 793.665 467.017 980.097 481.554C1294.12 506.04 1217.12 995.72 1433.55 941.833C1649.99 887.947 1474.58 624.149 1467.71 414.438C1460.84 204.728 1143.75 40.7276 1057.68 6.11585C971.607 -28.4959 995.88 132.781 876.036 176.503C756.191 220.224 739.297 129.015 562.157 186.892Z" stroke="#252525"/>
<path fill-rule="evenodd" clip-rule="evenodd" d="M556.77 200.721C442.54 242.562 347.284 307.945 271.004 396.872C128.56 477.475 63.9739 558.634 77.2469 640.35C97.1565 762.923 164.251 878.385 347.194 865.932C508.914 854.923 393.858 733.517 544.122 723.288C898.738 699.148 792.907 467.36 975.83 475.25C1283.94 488.54 1225.39 971.067 1435.32 910.877C1645.26 850.687 1464.57 598.137 1450.66 392.848C1436.75 187.56 1120.84 37.6463 1035.44 6.66034C950.03 -24.3257 979.312 132.903 863.544 179.838C747.776 226.773 728.116 137.961 556.77 200.721Z" stroke="#252525"/>
<path fill-rule="evenodd" clip-rule="evenodd" d="M552.064 214.557C441.776 259.432 350.856 326.725 279.304 416.437C142.752 500.246 82.3707 581.95 98.1588 661.55C121.841 780.951 191.429 891.78 369.93 873.356C527.724 857.069 411.024 742.05 557.64 726.917C903.647 691.203 792.178 467.734 971.358 469.24C1273.17 471.776 1232.47 946.474 1435.73 880.366C1638.99 814.259 1453.6 572.997 1432.94 372.361C1412.28 171.725 1098.16 35.6108 1013.56 8.16122C928.967 -19.2883 963.007 133.744 851.39 183.662C739.774 233.58 717.496 147.245 552.064 214.557Z" stroke="#252525"/>
<path fill-rule="evenodd" clip-rule="evenodd" d="M548.031 228.36C441.756 276.046 355.186 345.028 288.321 435.306C157.71 522.009 101.49 604.067 119.663 681.478C146.921 797.595 218.762 903.762 392.633 879.661C546.333 858.356 428.29 749.687 571.103 729.891C908.133 683.175 791.475 468.129 966.695 463.522C1261.84 455.762 1238.37 921.983 1434.81 850.35C1631.25 778.716 1441.71 548.757 1414.61 352.988C1387.51 157.219 1075.74 34.5931 992.098 10.585C908.452 -13.4232 946.992 135.276 839.592 187.946C732.192 240.616 707.443 156.83 548.031 228.36Z" stroke="#252525"/>
<path fill-rule="evenodd" clip-rule="evenodd" d="M544.664 242.105C442.461 292.379 360.246 362.83 298.02 453.458C173.381 542.746 121.273 624.968 141.696 700.124C172.33 812.857 246.186 914.341 415.252 884.864C564.704 858.807 445.617 756.437 584.483 732.226C912.199 675.088 790.801 468.55 961.856 458.108C1249.98 440.519 1243.11 897.654 1432.59 820.887C1622.07 744.121 1428.94 525.453 1395.72 334.75C1362.5 144.048 1053.64 34.5773 971.078 13.9101C888.517 -6.75707 931.297 137.486 828.167 192.676C725.036 247.866 697.968 166.694 544.664 242.105Z" stroke="#252525"/>
<path fill-rule="evenodd" clip-rule="evenodd" d="M541.953 255.763C443.871 308.4 366.006 380.103 308.359 470.871C189.711 562.435 141.656 644.636 164.195 717.475C198.004 826.734 273.637 923.527 437.738 888.979C582.803 858.439 462.964 762.307 597.752 733.93C915.846 666.963 790.156 468.995 956.857 453.003C1237.65 426.065 1246.71 873.537 1429.12 792.033C1611.53 710.53 1415.36 503.117 1376.34 317.664C1337.32 132.212 1031.88 35.5408 950.538 18.1089C869.192 0.677081 915.95 140.353 817.132 197.831C718.313 255.309 689.076 176.808 541.953 255.763Z" stroke="#252525"/>
<path fill-rule="evenodd" clip-rule="evenodd" d="M539.887 269.303C445.964 324.078 372.434 396.816 319.299 487.517C206.645 581.051 162.578 663.052 187.097 733.52C223.876 839.223 301.05 931.328 460.044 892.019C600.593 857.27 480.289 767.299 610.882 735.012C919.075 658.815 789.54 469.459 951.713 448.207C1224.88 412.41 1249.19 849.677 1424.43 763.835C1599.67 677.992 1401.01 481.774 1356.51 301.738C1312.01 121.702 1010.52 37.4548 930.514 23.1478C850.505 8.84083 900.976 143.852 806.5 203.386C712.025 262.92 680.772 187.14 539.887 269.303Z" stroke="#252525"/>
<path fill-rule="evenodd" clip-rule="evenodd" d="M538.455 282.695C448.717 339.384 379.499 412.945 330.799 503.378C224.13 598.577 183.976 680.202 210.338 748.253C249.88 850.329 328.363 937.759 482.121 894.001C618.041 855.32 497.554 771.424 623.846 735.483C921.89 650.663 788.955 469.941 946.439 443.726C1211.71 399.568 1250.57 826.124 1418.56 736.341C1586.56 646.558 1385.95 461.448 1336.3 286.98C1286.65 112.512 989.592 40.293 911.038 28.9958C832.484 17.6986 886.399 147.96 796.288 209.319C706.177 270.678 673.062 197.662 538.455 282.695Z" stroke="#252525"/>
<path fill-rule="evenodd" clip-rule="evenodd" d="M537.645 295.917C452.11 354.296 387.168 428.47 342.819 518.438C242.11 615.002 205.789 696.081 233.855 761.673C275.955 860.062 355.516 942.841 503.925 894.951C635.117 852.616 514.721 774.696 636.62 735.361C924.296 642.531 788.402 470.443 941.053 439.565C1198.18 387.552 1250.87 802.929 1411.57 709.603C1572.27 616.277 1370.23 442.168 1315.77 273.403C1261.3 104.637 969.133 44.0313 892.144 35.6247C815.154 27.218 872.247 152.658 786.509 215.612C700.772 278.565 665.948 208.348 537.645 295.917Z" stroke="#252525"/>
<path fill-rule="evenodd" clip-rule="evenodd" d="M537.442 308.941C456.116 368.789 395.407 443.368 355.317 532.681C260.53 630.313 227.953 710.68 257.585 773.78C302.034 868.431 382.447 946.592 525.41 894.888C651.789 849.183 531.75 777.126 649.176 734.659C926.297 634.437 787.88 470.964 935.57 435.726C1184.34 376.372 1250.13 780.137 1403.49 683.665C1556.85 587.193 1353.91 423.953 1294.96 261.008C1236.01 98.063 949.182 48.6397 873.861 43.0003C798.54 37.3608 858.54 157.921 777.176 222.241C695.811 286.56 659.432 219.17 537.442 308.941Z" stroke="#252525"/>
<path fill-rule="evenodd" clip-rule="evenodd" d="M537.832 321.736C460.71 382.83 404.182 457.614 368.248 546.087C279.334 644.495 250.406 723.989 281.465 784.57C328.054 875.442 409.096 949.029 546.533 893.832C668.026 845.038 548.603 778.724 661.49 733.386C927.898 626.392 787.391 471.495 930.005 432.206C1170.22 366.027 1248.38 757.786 1394.38 658.564C1540.38 559.342 1337.03 406.816 1273.94 249.793C1210.85 92.77 929.772 54.081 856.217 51.082C782.663 48.0829 845.301 163.717 768.297 229.176C691.294 294.635 653.515 230.094 537.832 321.736Z" stroke="#252525"/>
<path fill-rule="evenodd" clip-rule="evenodd" d="M538.797 334.282C465.865 396.406 413.456 471.195 381.571 558.65C298.465 657.546 273.085 736.014 305.432 794.055C353.953 881.117 435.405 950.185 567.25 891.815C683.8 840.216 565.244 779.51 673.538 731.566C929.106 618.422 786.934 472.042 924.374 429.011C1155.88 356.531 1245.63 735.927 1384.27 634.347C1522.91 532.767 1319.67 390.78 1252.77 239.764C1185.88 88.7475 910.939 60.3301 839.24 59.8412C767.541 59.3522 832.549 170.027 759.885 236.402C687.221 302.777 648.195 241.097 538.797 334.282Z" stroke="#252525"/>
<path fill-rule="evenodd" clip-rule="evenodd" d="M540.321 346.553C471.554 409.489 423.195 484.09 395.243 570.355C317.867 669.457 295.928 746.752 329.425 802.239C379.671 885.47 461.318 950.082 587.521 888.86C699.083 834.74 581.637 779.499 685.297 729.213C929.928 610.54 786.51 472.599 918.692 426.14C1141.34 347.883 1241.93 714.596 1373.23 611.047C1504.53 507.499 1301.86 375.852 1231.5 230.912C1161.14 85.9717 892.713 67.3488 822.954 69.2367C753.195 71.1246 820.304 176.82 751.948 243.89C683.591 310.96 643.47 252.148 540.321 346.553Z" stroke="#252525"/>
<path fill-rule="evenodd" clip-rule="evenodd" d="M542.69 359.101C478.021 422.573 433.572 496.684 409.345 581.435C337.54 680.332 318.851 756.165 353.276 808.933C404.914 888.085 486.427 948.085 606.954 884.331C713.498 827.974 597.525 778.291 696.522 725.926C930.15 602.346 786.139 473.204 912.975 423.589C1126.62 340.016 1236.79 692.855 1360.83 587.809C1484.87 482.764 1283.51 361.746 1210.24 223.327C1136.96 84.9088 875.557 75.918 807.851 80.1171C740.145 84.3162 808.929 184.72 744.798 252.194C680.667 319.667 639.693 263.893 542.69 359.101Z" stroke="#252525"/>
</g>
</svg>
