<svg viewBox="0 0 105 60" xmlns="http://www.w3.org/2000/svg">
    <path opacity="0.8" d="M49.2 36.2L48.2148 36.0287V36.0287L49.2 36.2ZM46.8 44.04L45.879 43.6503L45.8753 43.6593L46.8 44.04ZM35.28 56.44L35.6877 57.3532L35.695 57.3498L35.28 56.44ZM7.68 50.6L8.47022 49.9872L7.68 50.6ZM2.88 19.96L1.91447 19.6995L1.91172 19.7101L2.88 19.96ZM6.96 10.6L6.11633 10.0631L6.11377 10.0672L6.96 10.6ZM14.64 3.64L15.1046 4.52561L15.1158 4.51954L14.64 3.64ZM43.2 8.2L42.4608 8.87353L42.4687 8.88202L43.2 8.2ZM31.92 16.6L30.9779 16.9353L30.9797 16.9404L31.92 16.6ZM21.44 13.72L22.1471 14.4271L22.155 14.4193L22.1626 14.4112L21.44 13.72ZM18.96 18.92L17.9812 18.7151L17.9794 18.724L17.9777 18.7329L18.96 18.92ZM18.08 24.92L17.0841 24.8295L17.0828 24.8435L17.0819 24.8576L18.08 24.92ZM18.88 41.24L17.9038 41.4569L17.9074 41.473L17.9115 41.489L18.88 41.24ZM21.28 45.64L20.5903 46.3641L20.608 46.3809L20.6264 46.3968L21.28 45.64ZM48.84 28.92C48.84 31.2605 48.632 33.6298 48.2148 36.0287L50.1852 36.3713C50.6214 33.8635 50.84 31.3795 50.84 28.92H48.84ZM48.2148 36.0287C47.8035 38.3934 47.0287 40.9331 45.879 43.6504L47.721 44.4296C48.918 41.6003 49.7431 38.9133 50.1852 36.3713L48.2148 36.0287ZM45.8753 43.6593C44.7918 46.2906 43.4042 48.5996 41.7166 50.5941L43.2434 51.8859C45.0758 49.7204 46.5682 47.2294 47.7247 44.4207L45.8753 43.6593ZM41.7166 50.5941C40.0709 52.539 37.8006 54.1912 34.865 55.5302L35.695 57.3498C38.8394 55.9155 41.3691 54.101 43.2434 51.8859L41.7166 50.5941ZM34.8723 55.5269C32.0326 56.7946 28.7882 57.44 25.12 57.44V59.44C29.0251 59.44 32.554 58.7521 35.6877 57.3531L34.8723 55.5269ZM25.12 57.44C17.8049 57.44 12.305 54.9321 8.47022 49.9872L6.88978 51.2128C11.1616 56.7213 17.2884 59.44 25.12 59.44V57.44ZM8.47022 49.9872C4.58385 44.9758 2.6 38.4613 2.6 30.36H0.6C0.6 38.7921 2.66948 45.7709 6.88978 51.2128L8.47022 49.9872ZM2.6 30.36C2.6 26.8124 3.01727 23.43 3.84828 20.2099L1.91172 19.7101C1.03606 23.1033 0.6 26.6542 0.6 30.36H2.6ZM3.84547 20.2205C4.72677 16.9545 6.04719 13.9266 7.80623 11.1328L6.11377 10.0672C4.24615 13.0334 2.84656 16.2455 1.91453 19.6995L3.84547 20.2205ZM7.80366 11.1369C9.57121 8.3593 11.9968 6.15585 15.1046 4.52554L14.1755 2.75445C10.7766 4.53747 8.08213 6.97403 6.11634 10.0631L7.80366 11.1369ZM15.1158 4.51954C18.202 2.84998 21.7938 2 25.92 2V-3.8147e-06C21.5129 -3.8147e-06 17.5847 0.910009 14.1642 2.76045L15.1158 4.51954ZM25.92 2C32.8169 2 38.2972 4.30371 42.4608 8.87349L43.9392 7.52651C39.3561 2.49629 33.3165 -3.8147e-06 25.92 -3.8147e-06V2ZM42.4687 8.88202C46.6643 13.381 48.84 20.0055 48.84 28.92H50.84C50.84 19.7012 48.589 12.5124 43.9313 7.51797L42.4687 8.88202ZM34.6 30.2C34.6 24.1892 34.0398 19.5173 32.8603 16.2596L30.9797 16.9404C32.0402 19.8694 32.6 24.2641 32.6 30.2H34.6ZM32.8621 16.2647C32.2582 14.568 31.3862 13.2086 30.1983 12.274C28.999 11.3306 27.5531 10.88 25.92 10.88V12.88C27.1669 12.88 28.161 13.216 28.9617 13.846C29.7738 14.4848 30.4618 15.4853 30.9779 16.9353L32.8621 16.2647ZM25.92 10.88C23.8545 10.88 22.0932 11.5904 20.7174 13.0288L22.1626 14.4112C23.1334 13.3963 24.3588 12.88 25.92 12.88V10.88ZM20.7329 13.0129C19.3764 14.3694 18.4853 16.3067 17.9812 18.7151L19.9388 19.1249C20.3947 16.9467 21.157 15.4173 22.1471 14.4271L20.7329 13.0129ZM17.9777 18.7329C17.5466 20.9962 17.2478 23.0294 17.0841 24.8295L19.0759 25.0105C19.2322 23.2906 19.5201 21.3238 19.9423 19.1071L17.9777 18.7329ZM17.0819 24.8576C16.9735 26.5928 16.92 28.7755 16.92 31.4H18.92C18.92 28.7979 18.9732 26.6605 19.0781 24.9824L17.0819 24.8576ZM16.92 31.4C16.92 33.3887 16.9737 35.0707 17.0832 36.4397L19.0768 36.2803C18.973 34.9827 18.92 33.3579 18.92 31.4H16.92ZM17.0832 36.4397C17.1948 37.8352 17.4713 39.5107 17.9038 41.4569L19.8562 41.0231C19.4354 39.1293 19.1785 37.5515 19.0768 36.2803L17.0832 36.4397ZM17.9115 41.489C18.4267 43.4926 19.305 45.14 20.5903 46.3641L21.9697 44.9159C21.015 44.0067 20.2933 42.7207 19.8485 40.991L17.9115 41.489ZM20.6264 46.3968C22.0059 47.5882 23.7146 48.16 25.68 48.16V46.16C24.1254 46.16 22.9008 45.7184 21.9336 44.8832L20.6264 46.3968ZM25.68 48.16C27.1896 48.16 28.5518 47.752 29.726 46.9139C30.8904 46.0827 31.8133 44.8694 32.5261 43.3431C33.9396 40.3162 34.6 35.8996 34.6 30.2H32.6C32.6 35.8071 31.9404 39.8704 30.7139 42.4969C30.1067 43.7972 29.3796 44.7039 28.564 45.2861C27.7582 45.8613 26.8104 46.16 25.68 46.16V48.16ZM102.238 15.16L102.39 16.1484L103.561 15.9682L103.186 14.8438L102.238 15.16ZM86.6375 17.56L85.6487 17.709L85.7981 18.7009L86.7896 18.5484L86.6375 17.56ZM72.6375 15.8L71.7979 15.2567L71.7952 15.2609L72.6375 15.8ZM70.0775 26.28H69.0775V29.123L70.8573 26.906L70.0775 26.28ZM97.9975 25.72L97.3174 26.4532L97.3227 26.458L97.9975 25.72ZM96.7975 53.08L96.1842 52.2901L96.1797 52.2937L96.7975 53.08ZM61.4375 51.4L60.7098 52.0859L60.714 52.0903L61.4375 51.4ZM56.3175 19.72L55.3565 19.4433L55.3538 19.4531L56.3175 19.72ZM60.7975 10.2L59.9797 9.6245L59.9775 9.62757L60.7975 10.2ZM69.0375 3.48L69.4566 4.38803L69.468 4.3826L69.0375 3.48ZM95.1175 4.52L94.5196 5.32167L94.5285 5.32814L95.1175 4.52ZM85.4375 33.16L84.7429 33.8794L84.7555 33.8916L84.7685 33.9033L85.4375 33.16ZM73.7575 33.48L74.5101 34.1385L73.7575 33.48ZM73.8375 45.32L74.5565 44.625L73.8375 45.32ZM85.8375 45.16L85.0404 44.5561L85.0375 44.56L85.8375 45.16ZM102.085 14.1716L86.4854 16.5716L86.7896 18.5484L102.39 16.1484L102.085 14.1716ZM87.6263 17.411C87.3112 15.3195 86.5602 13.6172 85.2716 12.4413C83.9743 11.2576 82.2561 10.72 80.2375 10.72V12.72C81.8989 12.72 83.0874 13.1558 83.9235 13.9187C84.7681 14.6895 85.3772 15.9072 85.6487 17.709L87.6263 17.411ZM80.2375 10.72C76.6001 10.72 73.7468 12.2449 71.7979 15.2567L73.4771 16.3432C75.0482 13.9151 77.2616 12.72 80.2375 12.72V10.72ZM71.7952 15.2609C69.9544 18.1372 69.0775 21.8364 69.0775 26.28H71.0775C71.0775 22.0836 71.9072 18.7961 73.4798 16.3391L71.7952 15.2609ZM70.8573 26.906C73.6493 23.4282 78.0604 21.6 84.3175 21.6V19.6C77.668 19.6 72.5857 21.5584 69.2977 25.654L70.8573 26.906ZM84.3175 21.6C89.5283 21.6 93.8386 23.2264 97.3175 26.4532L98.6775 24.9868C94.7964 21.3869 89.9867 19.6 84.3175 19.6V21.6ZM97.3227 26.458C100.836 29.6706 102.598 33.7702 102.598 38.84H104.598C104.598 33.2431 102.625 28.5961 98.6723 24.982L97.3227 26.458ZM102.598 38.84C102.598 44.5191 100.462 48.9684 96.1842 52.2901L97.4108 53.8699C102.199 50.1516 104.598 45.1076 104.598 38.84H102.598ZM96.1797 52.2937C91.9048 55.6526 86.5598 57.36 80.0775 57.36V59.36C86.9285 59.36 92.7302 57.5474 97.4153 53.8663L96.1797 52.2937ZM80.0775 57.36C72.2788 57.36 66.3545 55.1052 62.161 50.7097L60.714 52.0903C65.3739 56.9748 71.8762 59.36 80.0775 59.36V57.36ZM62.1652 50.7141C58.0269 46.3235 55.8775 39.8088 55.8775 31H53.8775C53.8775 40.1112 56.1014 47.1965 60.7098 52.0859L62.1652 50.7141ZM55.8775 31C55.8775 27.0256 56.3481 23.3564 57.2812 19.9869L55.3538 19.4531C54.3669 23.0169 53.8775 26.8677 53.8775 31H55.8775ZM57.2785 19.9966C58.2633 16.5757 59.7109 13.5034 61.6175 10.7724L59.9775 9.62757C57.9374 12.5499 56.3984 15.8243 55.3565 19.4434L57.2785 19.9966ZM61.6153 10.7755C63.5322 8.05149 66.1359 5.92058 69.4566 4.38796L68.6184 2.57204C65.0058 4.23941 62.1161 6.5885 59.9797 9.6245L61.6153 10.7755ZM69.468 4.3826C72.7766 2.80465 76.6512 2 81.1175 2V-3.8147e-06C76.4105 -3.8147e-06 72.2318 0.848679 68.607 2.57739L69.468 4.3826ZM81.1175 2C87.2043 2 91.6197 3.15896 94.5197 5.32163L95.7153 3.71837C92.3219 1.1877 87.404 -3.8147e-06 81.1175 -3.8147e-06V2ZM94.5285 5.32814C97.463 7.46683 99.735 10.8147 101.289 15.4762L103.186 14.8438C101.54 9.90525 99.0653 6.15983 95.7065 3.71185L94.5285 5.32814ZM88.8375 39.24C88.8375 36.409 87.9616 34.0863 86.1065 32.4167L84.7685 33.9033C86.1134 35.1137 86.8375 36.8443 86.8375 39.24H88.8375ZM86.1321 32.4406C84.3955 30.7639 82.2784 29.92 79.8375 29.92V31.92C81.77 31.92 83.3862 32.5695 84.7429 33.8794L86.1321 32.4406ZM79.8375 29.92C77.0306 29.92 74.7138 30.8685 73.0049 32.8215L74.5101 34.1385C75.7878 32.6782 77.5244 31.92 79.8375 31.92V29.92ZM73.0049 32.8215C71.3586 34.7031 70.5175 36.8815 70.5175 39.32H72.5175C72.5175 37.3852 73.1698 35.6703 74.5101 34.1385L73.0049 32.8215ZM70.5175 39.32C70.5175 41.957 71.3766 44.2131 73.1185 46.015L74.5565 44.625C73.205 43.2269 72.5175 41.483 72.5175 39.32H70.5175ZM73.1185 46.015C74.8648 47.8215 77.0763 48.72 79.6775 48.72V46.72C77.5854 46.72 75.9036 46.0185 74.5565 44.625L73.1185 46.015ZM79.6775 48.72C82.7077 48.72 85.1106 47.7958 86.6375 45.76L85.0375 44.56C84.0044 45.9375 82.3006 46.72 79.6775 46.72V48.72ZM86.6346 45.7639C88.0982 43.8319 88.8375 41.647 88.8375 39.24H86.8375C86.8375 41.2064 86.2435 42.9681 85.0404 44.5561L86.6346 45.7639Z" fill="#E5E5E5"/>
</svg>