<svg viewBox="0 0 34 41" fill="none" xmlns="http://www.w3.org/2000/svg">
<path fill-rule="evenodd" clip-rule="evenodd" d="M28.1095 6.09068H24.2061L24.4465 5.41553H28.1095V6.09068Z" fill="white"/>
<path fill-rule="evenodd" clip-rule="evenodd" d="M17.7037 5.41544L21.3278 5.41504L21.5651 6.09182C21.5669 6.09086 17.7049 6.09265 17.7049 6.09182C17.705 6.09086 17.7026 5.41547 17.7037 5.41547V5.41544Z" fill="white"/>
<path fill-rule="evenodd" clip-rule="evenodd" d="M14.8255 5.41531C15.4228 5.47311 15.942 5.68659 16.3844 6.09167C16.3844 6.09167 9.81512 6.09239 9.81512 6.09167C9.81512 6.09085 9.81512 5.41516 9.81512 5.41516L14.8255 5.41532V5.41531Z" fill="white"/>
<path fill-rule="evenodd" clip-rule="evenodd" d="M4.66104 5.41577H9.22467V6.09093H4.66104V5.41577Z" fill="white"/>
<path fill-rule="evenodd" clip-rule="evenodd" d="M28.1094 7.35738H23.7587C23.7587 7.35738 23.996 6.68582 23.9946 6.68555H28.1094V7.35738Z" fill="white"/>
<path fill-rule="evenodd" clip-rule="evenodd" d="M22.0135 7.35823H17.7036V6.68542H21.7774L22.0135 7.35823Z" fill="white"/>
<path fill-rule="evenodd" clip-rule="evenodd" d="M16.8959 6.68524C16.9825 6.90707 17.0849 7.09671 17.0849 7.35712L9.81635 7.35711V6.68524H16.8959Z" fill="white"/>
<path fill-rule="evenodd" clip-rule="evenodd" d="M4.66003 6.68524H9.22366V7.35712H4.66003V6.68524Z" fill="white"/>
<path fill-rule="evenodd" clip-rule="evenodd" d="M23.3137 8.62725L23.5524 7.95227L26.8193 7.95322V8.62575L23.3137 8.62725Z" fill="white"/>
<path fill-rule="evenodd" clip-rule="evenodd" d="M22.2232 7.95209L22.4612 8.62723H18.9886V7.95209H22.2232Z" fill="white"/>
<path fill-rule="evenodd" clip-rule="evenodd" d="M17.1426 7.95197C17.1426 8.18346 17.1136 8.42467 17.0465 8.62725H15.0563V7.95197H17.1426Z" fill="white"/>
<path fill-rule="evenodd" clip-rule="evenodd" d="M5.93201 7.95526H7.89356V8.62711H5.93201V7.95526Z" fill="white"/>
<path fill-rule="evenodd" clip-rule="evenodd" d="M11.1367 7.95197H13.0949V8.6271H11.1367V7.95197Z" fill="white"/>
<path fill-rule="evenodd" clip-rule="evenodd" d="M20.9175 9.35616C20.9175 9.35616 20.9181 9.86716 20.9177 9.86813H18.9886V9.19626H22.6645L22.8928 9.82269C22.8939 9.82309 23.113 9.19474 23.1134 9.19611H26.8181V9.86813H24.8985C24.8984 9.86716 24.8974 9.3563 24.8974 9.3563L24.7199 9.86813L21.0948 9.86716L20.9175 9.35616H20.9175Z" fill="white"/>
<path fill-rule="evenodd" clip-rule="evenodd" d="M11.1367 9.19616H16.7579V9.19592C16.6349 9.421 16.4119 9.69451 16.2003 9.86819C16.2003 9.86819 11.1365 9.86912 11.1365 9.86819C11.1365 9.86723 11.1367 9.1974 11.1367 9.19618L11.1367 9.19616Z" fill="white"/>
<path fill-rule="evenodd" clip-rule="evenodd" d="M5.93201 9.19604H7.89356V9.86806H5.93201V9.19604Z" fill="white"/>
<path fill-rule="evenodd" clip-rule="evenodd" d="M24.8985 10.463H26.8181V11.1348H24.8985V10.463Z" fill="white"/>
<path fill-rule="evenodd" clip-rule="evenodd" d="M20.9175 10.463H18.9886V11.1348C18.9876 11.1345 20.9181 11.1351 20.9181 11.1348C20.9181 11.1345 20.9202 10.463 20.9175 10.463Z" fill="white"/>
<path fill-rule="evenodd" clip-rule="evenodd" d="M24.5108 10.463C24.5021 10.462 24.286 11.1345 24.2769 11.1348L21.5427 11.136C21.5406 11.135 21.3023 10.462 21.3021 10.463H24.5108Z" fill="white"/>
<path fill-rule="evenodd" clip-rule="evenodd" d="M11.1365 10.4629H16.1907C16.4215 10.6558 16.6299 10.8938 16.7933 11.1349C16.8025 11.1346 11.1366 11.1352 11.1366 11.1349C11.1366 11.1346 11.1364 10.4636 11.1364 10.4629H11.1365Z" fill="white"/>
<path fill-rule="evenodd" clip-rule="evenodd" d="M7.89323 11.1348V10.4629H5.93521C5.93521 10.4629 5.93562 11.1346 5.93521 11.1346C5.93481 11.1346 7.89229 11.1347 7.89323 11.1347V11.1348Z" fill="white"/>
<path fill-rule="evenodd" clip-rule="evenodd" d="M24.8985 11.7297H26.8179V12.4017H24.8985V11.7297Z" fill="white"/>
<path fill-rule="evenodd" clip-rule="evenodd" d="M18.9885 11.7297H20.9175V12.4015H18.9885V11.7297Z" fill="white"/>
<path fill-rule="evenodd" clip-rule="evenodd" d="M23.828 12.4048C23.8285 12.4018 24.0647 11.7291 24.0684 11.7297H21.7441C21.74 11.7294 21.9824 12.4018 21.9824 12.4018C21.9824 12.4018 23.8275 12.4076 23.828 12.4048Z" fill="white"/>
<path fill-rule="evenodd" clip-rule="evenodd" d="M11.1365 12.4016C11.1365 12.4043 11.1364 11.7297 11.1365 11.7296H13.1238C13.1238 11.7296 13.1255 12.4019 13.1238 12.4019C13.1219 12.4019 11.1365 12.401 11.1365 12.4016Z" fill="white"/>
<path fill-rule="evenodd" clip-rule="evenodd" d="M17.0722 11.7296C17.1682 11.9322 17.1779 12.1732 17.1971 12.4047H15.0914V11.7296H17.0722Z" fill="white"/>
<path fill-rule="evenodd" clip-rule="evenodd" d="M5.93521 11.7296H7.89323V12.4014H5.93521V11.7296Z" fill="white"/>
<path fill-rule="evenodd" clip-rule="evenodd" d="M24.8985 12.9705H28.1093V13.6426H24.8985V12.9705Z" fill="white"/>
<path fill-rule="evenodd" clip-rule="evenodd" d="M17.7034 12.9705H20.9175V13.6426H17.7034V12.9705Z" fill="white"/>
<path fill-rule="evenodd" clip-rule="evenodd" d="M23.3961 13.6426H22.4157L22.1805 12.9705H23.6228L23.3961 13.6426Z" fill="white"/>
<path fill-rule="evenodd" clip-rule="evenodd" d="M4.65976 12.9705V13.6423H9.22025C9.22215 13.6434 9.21821 12.9709 9.22025 12.9709C9.22215 12.9709 4.65446 12.9705 4.65976 12.9705V12.9705Z" fill="white"/>
<path fill-rule="evenodd" clip-rule="evenodd" d="M17.1136 12.9705C17.0656 13.1922 17.0216 13.4624 16.8602 13.6427L16.8 13.6423H9.8161V12.9705H17.1136V12.9705Z" fill="white"/>
<path fill-rule="evenodd" clip-rule="evenodd" d="M22.9517 14.9108H22.8615L22.6324 14.2373H23.1869L22.9517 14.9108Z" fill="white"/>
<path fill-rule="evenodd" clip-rule="evenodd" d="M24.8983 14.2373H28.1093V14.9124H24.8983V14.2373Z" fill="white"/>
<path fill-rule="evenodd" clip-rule="evenodd" d="M9.81512 14.9109V14.2385C9.81512 14.2385 16.4039 14.2393 16.4228 14.2393C15.9804 14.6635 15.3735 14.903 14.7198 14.9125L9.81609 14.9112L9.81512 14.9108V14.9109Z" fill="white"/>
<path fill-rule="evenodd" clip-rule="evenodd" d="M17.7034 14.2373H20.9175V14.9124H17.7034V14.2373Z" fill="white"/>
<path fill-rule="evenodd" clip-rule="evenodd" d="M9.22024 14.2403C9.22024 14.2403 9.21819 14.9109 9.22024 14.9109C9.22214 14.9109 4.66109 14.9136 4.65975 14.9122C4.65851 14.9109 4.66097 14.2385 4.65975 14.2385C4.65851 14.2385 9.21819 14.2425 9.22024 14.2403Z" fill="white"/>
<path fill-rule="evenodd" clip-rule="evenodd" d="M29.2192 13.5482C29.3424 13.5482 29.4627 13.5798 29.5803 13.6435C29.6975 13.7068 29.7892 13.7978 29.8547 13.9157C29.9201 14.034 29.953 14.1573 29.953 14.2853C29.953 14.4123 29.9208 14.5346 29.856 14.6515C29.7915 14.7688 29.7012 14.8598 29.5846 14.9245C29.468 14.9894 29.3461 15.0218 29.2192 15.0218C29.0919 15.0218 28.97 14.9894 28.8534 14.9245C28.7368 14.8598 28.6461 14.7688 28.5813 14.6515C28.5166 14.5346 28.484 14.4123 28.484 14.2853C28.484 14.1573 28.5169 14.034 28.5827 13.9157C28.6488 13.7978 28.7405 13.7068 28.8577 13.6435C28.9753 13.5798 29.0956 13.5482 29.2192 13.5482ZM29.2192 13.6701C29.1159 13.6701 29.0152 13.6968 28.9175 13.7498C28.8199 13.8028 28.7435 13.8787 28.6883 13.9774C28.6332 14.076 28.6056 14.1787 28.6056 14.2853C28.6056 14.3916 28.6328 14.4932 28.687 14.5905C28.7411 14.6879 28.8169 14.7638 28.9142 14.8182C29.0115 14.8725 29.1132 14.8998 29.2192 14.8998C29.3248 14.8998 29.4265 14.8725 29.5238 14.8182C29.6211 14.7638 29.6969 14.6879 29.7507 14.5905C29.8045 14.4932 29.8314 14.3916 29.8314 14.2853C29.8314 14.1787 29.8038 14.076 29.749 13.9774C29.6942 13.8787 29.6178 13.8028 29.5198 13.7498C29.4218 13.6968 29.3215 13.6701 29.2192 13.6701ZM28.8966 14.6919V13.9001H29.1683C29.2614 13.9001 29.3285 13.9074 29.37 13.9221C29.4118 13.9367 29.4447 13.962 29.4696 13.9987C29.4942 14.035 29.5065 14.0737 29.5065 14.1147C29.5065 14.1723 29.4859 14.223 29.4444 14.2656C29.4032 14.3086 29.3484 14.3326 29.28 14.338C29.3079 14.3496 29.3305 14.3636 29.3471 14.3799C29.379 14.4109 29.4178 14.4633 29.464 14.5369L29.5603 14.6919H29.4055L29.3351 14.5672C29.28 14.4689 29.2351 14.4073 29.2012 14.3826C29.178 14.3646 29.1441 14.3556 29.0992 14.3559H29.0242V14.6919H28.8966ZM29.0242 14.246H29.179C29.253 14.246 29.3035 14.235 29.3305 14.213C29.3574 14.191 29.371 14.1617 29.371 14.1257C29.371 14.1023 29.3643 14.0813 29.3514 14.063C29.3384 14.0444 29.3205 14.0307 29.2976 14.0217C29.2743 14.0127 29.2318 14.008 29.1693 14.008H29.0242V14.246Z" fill="white"/>
<path fill-rule="evenodd" clip-rule="evenodd" d="M5.74908 34.7265V25.4729H8.29624C11.546 25.4729 13.1731 26.9751 13.1731 29.9841C13.1731 31.4114 12.7208 32.5591 11.8183 33.4269C10.9158 34.2926 9.70811 34.7265 8.19301 34.7265H5.74908ZM6.82943 26.4531V33.7463H8.20621C9.41609 33.7463 10.3559 33.4203 11.03 32.7705C11.7041 32.1207 12.0401 31.2 12.0401 30.0083C12.0401 27.6382 10.7841 26.4531 8.26987 26.4531H6.82943ZM14.9868 34.7265V25.4729H17.6108C18.4079 25.4729 19.0425 25.6689 19.508 26.0588C19.9757 26.4509 20.2107 26.9619 20.2107 27.5897C20.2107 28.1139 20.0679 28.5699 19.7847 28.9576C19.5014 29.3453 19.1128 29.6206 18.6143 29.7836V29.81C19.2357 29.8827 19.7342 30.1184 20.1075 30.5149C20.4807 30.9136 20.6674 31.4312 20.6674 32.0678C20.6674 32.8586 20.3841 33.4996 19.8176 33.9908C19.2511 34.482 18.5375 34.7265 17.6745 34.7265H14.9868ZM16.0672 26.4531V29.4422H17.1739C17.7645 29.4422 18.2301 29.299 18.5704 29.0127C18.9085 28.7263 19.0776 28.3232 19.0776 27.8011C19.0776 26.9024 18.4892 26.4531 17.3078 26.4531H16.0672ZM16.0672 30.4158V33.7463H17.534C18.1686 33.7463 18.6604 33.5943 19.0096 33.2948C19.3609 32.993 19.5344 32.5789 19.5344 32.0546C19.5344 30.9621 18.7922 30.4158 17.3078 30.4158H16.0672ZM27.5051 34.7265H21.9454V33.7838L24.6352 31.081C25.3203 30.3916 25.8122 29.8189 26.1042 29.3607C26.3984 28.9025 26.5456 28.4135 26.5456 27.8915C26.5456 27.3584 26.394 26.9465 26.0888 26.6535C25.7836 26.3606 25.351 26.2152 24.7889 26.2152C23.9655 26.2152 23.1772 26.5676 22.4218 27.2725V26.1623C23.1421 25.5984 23.9809 25.3165 24.9382 25.3165C25.7616 25.3165 26.4072 25.5412 26.8793 25.9883C27.3514 26.4355 27.5886 27.0368 27.5886 27.7901C27.5886 28.3827 27.4239 28.962 27.0989 29.5281C26.7717 30.0942 26.1876 30.7969 25.3422 31.6361L23.2123 33.7463V33.7706H27.5051V34.7265Z" fill="white"/>
<path fill-rule="evenodd" clip-rule="evenodd" d="M28.6509 34.0138C28.7742 34.0138 28.8944 34.0455 29.012 34.1091C29.1293 34.1724 29.221 34.2634 29.2864 34.3814C29.3519 34.4997 29.3848 34.623 29.3848 34.7509C29.3848 34.8779 29.3525 35.0002 29.2878 35.1172C29.2233 35.2345 29.133 35.3255 29.0163 35.3901C28.8997 35.4551 28.7778 35.4874 28.6509 35.4874C28.5237 35.4874 28.4018 35.4551 28.2852 35.3901C28.1686 35.3255 28.0779 35.2345 28.0131 35.1172C27.9483 35.0002 27.9158 34.8779 27.9158 34.7509C27.9158 34.623 27.9487 34.4997 28.0144 34.3814C28.0805 34.2634 28.1722 34.1724 28.2895 34.1091C28.4071 34.0455 28.5274 34.0138 28.6509 34.0138ZM28.6509 34.1358C28.5476 34.1358 28.447 34.1624 28.3493 34.2154C28.2516 34.2684 28.1752 34.3444 28.1201 34.443C28.0649 34.5417 28.0374 34.6443 28.0374 34.7509C28.0374 34.8572 28.0646 34.9589 28.1187 35.0562C28.1729 35.1535 28.2486 35.2295 28.346 35.2838C28.4433 35.3381 28.545 35.3654 28.6509 35.3654C28.7566 35.3654 28.8582 35.3381 28.9556 35.2838C29.0529 35.2295 29.1286 35.1535 29.1824 35.0562C29.2363 34.9589 29.2632 34.8572 29.2632 34.7509C29.2632 34.6443 29.2356 34.5417 29.1808 34.443C29.126 34.3444 29.0496 34.2684 28.9516 34.2154C28.8536 34.1624 28.7533 34.1358 28.6509 34.1358ZM28.3284 35.1575V34.3657H28.6001C28.6931 34.3657 28.7602 34.373 28.8017 34.3877C28.8436 34.4024 28.8765 34.4277 28.9014 34.4643C28.926 34.5007 28.9383 34.5393 28.9383 34.5803C28.9383 34.638 28.9177 34.6886 28.8762 34.7313C28.835 34.7743 28.7802 34.7983 28.7117 34.8036C28.7396 34.8153 28.7622 34.8293 28.7788 34.8456C28.8107 34.8766 28.8496 34.9289 28.8958 35.0025L28.9921 35.1575H28.8373L28.7669 35.0329C28.7117 34.9346 28.6669 34.8729 28.633 34.8482C28.6097 34.8303 28.5759 34.8213 28.531 34.8216H28.4559V35.1575H28.3284ZM28.4559 34.7116H28.6107C28.6848 34.7116 28.7353 34.7006 28.7622 34.6786C28.7891 34.6566 28.8027 34.6273 28.8027 34.5913C28.8027 34.568 28.7961 34.547 28.7831 34.5287C28.7702 34.51 28.7523 34.4963 28.7293 34.4873C28.7061 34.4783 28.6636 34.4737 28.6011 34.4737H28.4559V34.7116Z" fill="white"/>
</svg>
