<svg viewBox="0 0 105 60" xmlns="http://www.w3.org/2000/svg">
    <path opacity="0.8" d="M49.2 36.2L48.2148 36.0287V36.0287L49.2 36.2ZM46.8 44.04L45.879 43.6503L45.8753 43.6593L46.8 44.04ZM35.28 56.44L35.6877 57.3532L35.695 57.3498L35.28 56.44ZM7.68 50.6L8.47022 49.9872L7.68 50.6ZM2.88 19.96L1.91447 19.6995L1.91172 19.7101L2.88 19.96ZM6.96 10.6L6.11633 10.0631L6.11377 10.0672L6.96 10.6ZM14.64 3.64L15.1046 4.52561L15.1158 4.51954L14.64 3.64ZM43.2 8.2L42.4608 8.87353L42.4687 8.88202L43.2 8.2ZM31.92 16.6L30.9779 16.9353L30.9797 16.9404L31.92 16.6ZM21.44 13.72L22.1471 14.4271L22.155 14.4193L22.1626 14.4112L21.44 13.72ZM18.96 18.92L17.9812 18.7151L17.9794 18.724L17.9777 18.7329L18.96 18.92ZM18.08 24.92L17.0841 24.8295L17.0828 24.8435L17.0819 24.8576L18.08 24.92ZM18.88 41.24L17.9038 41.4569L17.9074 41.473L17.9115 41.489L18.88 41.24ZM21.28 45.64L20.5903 46.3641L20.608 46.3809L20.6264 46.3968L21.28 45.64ZM48.84 28.92C48.84 31.2605 48.632 33.6298 48.2148 36.0287L50.1852 36.3713C50.6214 33.8635 50.84 31.3795 50.84 28.92H48.84ZM48.2148 36.0287C47.8035 38.3934 47.0287 40.9331 45.879 43.6504L47.721 44.4296C48.918 41.6003 49.7431 38.9133 50.1852 36.3713L48.2148 36.0287ZM45.8753 43.6593C44.7918 46.2906 43.4042 48.5996 41.7166 50.5941L43.2434 51.8859C45.0758 49.7204 46.5682 47.2294 47.7247 44.4207L45.8753 43.6593ZM41.7166 50.5941C40.0709 52.539 37.8006 54.1912 34.865 55.5302L35.695 57.3498C38.8394 55.9155 41.3691 54.101 43.2434 51.8859L41.7166 50.5941ZM34.8723 55.5269C32.0326 56.7946 28.7882 57.44 25.12 57.44V59.44C29.0251 59.44 32.554 58.7521 35.6877 57.3531L34.8723 55.5269ZM25.12 57.44C17.8049 57.44 12.305 54.9321 8.47022 49.9872L6.88978 51.2128C11.1616 56.7213 17.2884 59.44 25.12 59.44V57.44ZM8.47022 49.9872C4.58385 44.9758 2.6 38.4613 2.6 30.36H0.6C0.6 38.7921 2.66948 45.7709 6.88978 51.2128L8.47022 49.9872ZM2.6 30.36C2.6 26.8124 3.01727 23.43 3.84828 20.2099L1.91172 19.7101C1.03606 23.1033 0.6 26.6542 0.6 30.36H2.6ZM3.84547 20.2205C4.72677 16.9545 6.04719 13.9266 7.80623 11.1328L6.11377 10.0672C4.24615 13.0334 2.84656 16.2455 1.91453 19.6995L3.84547 20.2205ZM7.80366 11.1369C9.57121 8.3593 11.9968 6.15585 15.1046 4.52554L14.1755 2.75445C10.7766 4.53747 8.08213 6.97403 6.11634 10.0631L7.80366 11.1369ZM15.1158 4.51954C18.202 2.84998 21.7938 2 25.92 2V-3.8147e-06C21.5129 -3.8147e-06 17.5847 0.910009 14.1642 2.76045L15.1158 4.51954ZM25.92 2C32.8169 2 38.2972 4.30371 42.4608 8.87349L43.9392 7.52651C39.3561 2.49629 33.3165 -3.8147e-06 25.92 -3.8147e-06V2ZM42.4687 8.88202C46.6643 13.381 48.84 20.0055 48.84 28.92H50.84C50.84 19.7012 48.589 12.5124 43.9313 7.51797L42.4687 8.88202ZM34.6 30.2C34.6 24.1892 34.0398 19.5173 32.8603 16.2596L30.9797 16.9404C32.0402 19.8694 32.6 24.2641 32.6 30.2H34.6ZM32.8621 16.2647C32.2582 14.568 31.3862 13.2086 30.1983 12.274C28.999 11.3306 27.5531 10.88 25.92 10.88V12.88C27.1669 12.88 28.161 13.216 28.9617 13.846C29.7738 14.4848 30.4618 15.4853 30.9779 16.9353L32.8621 16.2647ZM25.92 10.88C23.8545 10.88 22.0932 11.5904 20.7174 13.0288L22.1626 14.4112C23.1334 13.3963 24.3588 12.88 25.92 12.88V10.88ZM20.7329 13.0129C19.3764 14.3694 18.4853 16.3067 17.9812 18.7151L19.9388 19.1249C20.3947 16.9467 21.157 15.4173 22.1471 14.4271L20.7329 13.0129ZM17.9777 18.7329C17.5466 20.9962 17.2478 23.0294 17.0841 24.8295L19.0759 25.0105C19.2322 23.2906 19.5201 21.3238 19.9423 19.1071L17.9777 18.7329ZM17.0819 24.8576C16.9735 26.5928 16.92 28.7755 16.92 31.4H18.92C18.92 28.7979 18.9732 26.6605 19.0781 24.9824L17.0819 24.8576ZM16.92 31.4C16.92 33.3887 16.9737 35.0707 17.0832 36.4397L19.0768 36.2803C18.973 34.9827 18.92 33.3579 18.92 31.4H16.92ZM17.0832 36.4397C17.1948 37.8352 17.4713 39.5107 17.9038 41.4569L19.8562 41.0231C19.4354 39.1293 19.1785 37.5515 19.0768 36.2803L17.0832 36.4397ZM17.9115 41.489C18.4267 43.4926 19.305 45.14 20.5903 46.3641L21.9697 44.9159C21.015 44.0067 20.2933 42.7207 19.8485 40.991L17.9115 41.489ZM20.6264 46.3968C22.0059 47.5882 23.7146 48.16 25.68 48.16V46.16C24.1254 46.16 22.9008 45.7184 21.9336 44.8832L20.6264 46.3968ZM25.68 48.16C27.1896 48.16 28.5518 47.752 29.726 46.9139C30.8904 46.0827 31.8133 44.8694 32.5261 43.3431C33.9396 40.3162 34.6 35.8996 34.6 30.2H32.6C32.6 35.8071 31.9404 39.8704 30.7139 42.4969C30.1067 43.7972 29.3796 44.7039 28.564 45.2861C27.7582 45.8613 26.8104 46.16 25.68 46.16V48.16ZM73.1175 34.52H72.1175V35.8172L73.372 35.4871L73.1175 34.52ZM73.1175 23.64L73.224 22.6457L72.1175 22.5271V23.64H73.1175ZM83.9975 13.88L83.2741 14.5705L83.2902 14.5873L83.307 14.6034L83.9975 13.88ZM70.6375 20.28L70.5794 21.2783L71.5297 21.3336L71.6317 20.3872L70.6375 20.28ZM55.5175 19.4L54.5234 19.2915L54.4092 20.3372L55.4594 20.3983L55.5175 19.4ZM95.4375 5.24L94.8626 6.05819L95.4375 5.24ZM92.5575 28.52L92.2233 27.5775L89.3248 28.6051L92.2734 29.4788L92.5575 28.52ZM96.2375 29.88L95.8094 30.7837L95.8182 30.7879L95.8271 30.7919L96.2375 29.88ZM99.5175 31.96L98.8883 32.7372L98.8971 32.7444L98.9061 32.7513L99.5175 31.96ZM102.158 35.56L101.227 35.9257L101.232 35.9399L101.238 35.9539L102.158 35.56ZM96.7175 53.64L96.144 52.8208L96.7175 53.64ZM69.3575 57.32L69.1535 58.299L69.1575 58.2998L69.3575 57.32ZM62.1575 54.6L61.6523 55.4631L61.6614 55.4682L62.1575 54.6ZM56.7175 49.16L57.5698 48.637L56.7175 49.16ZM53.6775 40.52L53.4923 39.5373L52.5253 39.7196L52.692 40.6894L53.6775 40.52ZM68.9575 37.64L69.9545 37.562L69.8675 36.4509L68.7723 36.6573L68.9575 37.64ZM74.1175 34.52V23.64H72.1175V34.52H74.1175ZM73.011 24.6343C74.5224 24.7962 75.7879 24.88 76.7975 24.88V22.88C75.8871 22.88 74.6993 22.8038 73.224 22.6457L73.011 24.6343ZM76.7975 24.88C79.8643 24.88 82.3395 24.3723 84.0739 23.2109C85.8793 22.0019 86.7575 20.1694 86.7575 17.88H84.7575C84.7575 19.5906 84.1424 20.758 82.9611 21.5491C81.7088 22.3877 79.7041 22.88 76.7975 22.88V24.88ZM86.7575 17.88C86.7575 16.0455 86.0482 14.455 84.688 13.1566L83.307 14.6034C84.2935 15.545 84.7575 16.6212 84.7575 17.88H86.7575ZM84.7209 13.1895C83.321 11.723 81.0889 11.12 78.3175 11.12V13.12C80.8795 13.12 82.434 13.6904 83.2741 14.5705L84.7209 13.1895ZM78.3175 11.12C75.8385 11.12 73.7778 11.8719 72.2693 13.4746C70.7849 15.0518 69.9495 17.3329 69.6433 20.1728L71.6317 20.3872C71.9121 17.7871 72.6501 15.9882 73.7257 14.8454C74.7772 13.7281 76.2631 13.12 78.3175 13.12V11.12ZM70.6956 19.2817L55.5756 18.4017L55.4594 20.3983L70.5794 21.2783L70.6956 19.2817ZM56.5116 19.5085C57.1558 13.6074 59.3769 9.30382 63.0868 6.45292C66.8219 3.58264 72.2016 2.08 79.3575 2.08V0.0799942C71.9534 0.0799942 66.0797 1.63069 61.8682 4.86707C57.6314 8.12283 55.2125 12.9793 54.5234 19.2915L56.5116 19.5085ZM79.3575 2.08C86.0055 2.08 91.1399 3.44227 94.8626 6.05819L96.0125 4.42181C91.8418 1.49106 86.2561 0.0799942 79.3575 0.0799942V2.08ZM94.8626 6.05819C98.5479 8.6479 100.358 12.1053 100.358 16.52H102.358C102.358 11.4414 100.22 7.37876 96.0125 4.42181L94.8626 6.05819ZM100.358 16.52C100.358 19.3096 99.6691 21.5714 98.3511 23.3686C97.0301 25.17 95.0159 26.5874 92.2233 27.5775L92.8917 29.4625C95.9658 28.3726 98.3515 26.75 99.9639 24.5514C101.579 22.3486 102.358 19.6504 102.358 16.52H100.358ZM92.2734 29.4788C93.6795 29.8954 94.8552 30.3317 95.8094 30.7837L96.6656 28.9763C95.5932 28.4683 94.3155 27.9979 92.8416 27.5612L92.2734 29.4788ZM95.8271 30.7919C96.7997 31.2296 97.8204 31.8727 98.8883 32.7372L100.147 31.1828C98.9746 30.2339 97.8086 29.4904 96.6479 28.9681L95.8271 30.7919ZM98.9061 32.7513C99.9248 33.5385 100.701 34.5862 101.227 35.9257L103.088 35.1943C102.441 33.5472 101.457 32.1948 100.129 31.1687L98.9061 32.7513ZM101.238 35.9539C101.815 37.2991 102.118 38.8937 102.118 40.76H104.118C104.118 38.6796 103.78 36.8076 103.077 35.1661L101.238 35.9539ZM102.118 40.76C102.118 46.0626 100.121 50.0372 96.144 52.8208L97.291 54.4592C101.848 51.2695 104.118 46.6574 104.118 40.76H102.118ZM96.144 52.8208C92.1145 55.6415 86.1901 57.12 78.2375 57.12V59.12C86.3916 59.12 92.7872 57.6119 97.291 54.4592L96.144 52.8208ZM78.2375 57.12C74.9827 57.12 72.0916 56.8574 69.5575 56.3402L69.1575 58.2998C71.8501 58.8493 74.8789 59.12 78.2375 59.12V57.12ZM69.5615 56.341C67.1026 55.8288 64.8014 54.959 62.6536 53.7318L61.6614 55.4682C63.9936 56.8009 66.4924 57.7446 69.1535 58.299L69.5615 56.341ZM62.6627 53.737C60.63 52.5471 58.9315 50.8559 57.5698 48.637L55.8652 49.683C57.3835 52.1574 59.3117 54.0929 61.6523 55.463L62.6627 53.737ZM57.5698 48.637C56.211 46.4226 55.2335 43.6698 54.663 40.3506L52.692 40.6894C53.2948 44.1969 54.344 47.204 55.8652 49.683L57.5698 48.637ZM53.8627 41.5027L69.1427 38.6227L68.7723 36.6573L53.4923 39.5373L53.8627 41.5027ZM67.9605 37.718C68.211 40.918 69.1264 43.4771 70.8411 45.2377C72.5722 47.0152 74.9814 47.84 77.9175 47.84V45.84C75.3603 45.84 73.5295 45.1315 72.2739 43.8423C71.0019 42.5363 70.184 40.4954 69.9545 37.562L67.9605 37.718ZM77.9175 47.84C80.8556 47.84 83.245 47.2411 84.9119 45.873C86.6167 44.4738 87.3975 42.412 87.3975 39.88H85.3975C85.3975 41.988 84.765 43.4062 83.6431 44.327C82.4834 45.2789 80.6327 45.84 77.9175 45.84V47.84ZM87.3975 39.88C87.3975 37.6528 86.5046 35.88 84.6983 34.7188C82.9676 33.6063 80.4992 33.12 77.4375 33.12V35.12C80.3491 35.12 82.3607 35.5937 83.6167 36.4012C84.7971 37.16 85.3975 38.2672 85.3975 39.88H87.3975ZM77.4375 33.12C75.5406 33.12 74 33.2537 72.863 33.5529L73.372 35.4871C74.2617 35.2529 75.601 35.12 77.4375 35.12V33.12Z" fill="#E5E5E5"/>
</svg>