<svg width="100%" height="100%" viewBox="0 0 1244 586" fill="none" xmlns="http://www.w3.org/2000/svg">
<g opacity="0.1">
<path fill-rule="evenodd" clip-rule="evenodd" d="M365.875 317.915C261.79 399.076 185.101 498.069 135.809 614.894C15.4377 745.294 -24.3537 850.232 16.4345 929.707C77.617 1048.92 185.165 1145.05 369.941 1071.09C533.28 1005.71 374.239 919.514 526.009 858.765C884.177 715.402 698.077 512.767 889.573 459.704C1212.13 370.326 1311.59 885.412 1508.42 753.406C1705.24 621.4 1434.97 422.474 1352.56 216.316C1270.16 10.1587 894.276 -38.1565 795.817 -41.4184C697.359 -44.6803 779.705 106.986 675.721 193.893C571.737 280.8 522.003 196.173 365.875 317.915Z" stroke="white"/>
<path fill-rule="evenodd" clip-rule="evenodd" d="M365.133 333.444C265.954 416.564 194.241 516.251 149.995 632.504C36.5671 764.471 1.21851 868.744 43.9496 945.323C108.046 1060.19 216.777 1150.86 395.279 1072.08C553.073 1002.44 394.227 923.254 540.843 858.547C886.851 705.842 697.443 513.361 883.257 454.853C1196.24 356.302 1311.6 858.18 1499.9 722.059C1688.19 585.937 1416.42 399.935 1328.51 200.501C1240.6 1.06623 870.572 -33.6436 773.974 -33.5214C677.377 -33.3992 763.34 112.588 664.46 201.341C565.579 290.094 513.902 208.763 365.133 333.444Z" stroke="white"/>
<path fill-rule="evenodd" clip-rule="evenodd" d="M365.053 348.752C270.787 433.589 204.004 533.746 164.703 649.22C58.1783 782.432 27.177 885.86 71.6996 959.506C138.484 1069.97 248.15 1155.21 420.271 1071.96C572.424 998.364 414.064 926.073 555.44 857.692C889.079 696.317 696.841 513.969 876.83 450.346C1180 343.18 1310.46 831.381 1490.18 691.575C1669.9 551.77 1397.21 378.547 1304.16 185.965C1211.1 -6.61815 847.415 -28.1918 752.792 -24.8195C658.169 -21.4471 747.456 118.797 653.679 209.148C559.902 299.498 506.451 221.495 365.053 348.752Z" stroke="white"/>
<path fill-rule="evenodd" clip-rule="evenodd" d="M365.623 363.819C276.268 450.135 214.358 550.54 179.894 665.035C80.2187 799.174 53.4622 901.584 99.6248 972.267C168.869 1078.29 279.226 1158.14 444.876 1070.77C591.309 993.526 433.718 927.996 569.779 856.226C890.873 686.853 696.276 514.597 870.314 446.193C1163.46 330.974 1308.21 805.068 1479.33 662.008C1650.46 518.948 1377.39 358.338 1279.56 172.718C1181.73 -12.9024 824.848 -21.8257 732.307 -15.3409C639.765 -8.85618 732.082 125.595 643.397 217.297C554.713 308.999 499.655 234.345 365.623 363.819Z" stroke="white"/>
<path fill-rule="evenodd" clip-rule="evenodd" d="M366.822 378.613C282.364 466.169 225.263 566.608 195.518 679.93C102.624 814.682 80.0033 915.907 127.655 983.604C199.132 1085.15 309.941 1159.68 469.045 1068.52C609.691 987.943 453.146 929.031 583.829 854.158C892.235 677.463 695.745 515.236 863.721 442.388C1146.66 319.682 1304.88 779.279 1467.4 633.391C1629.92 487.503 1357.02 339.316 1254.79 160.752C1152.56 -17.8124 802.9 -14.5869 712.54 -5.13094C622.18 4.32502 717.233 132.946 633.619 225.756C550.005 318.567 493.509 247.278 366.822 378.613Z" stroke="white"/>
<path fill-rule="evenodd" clip-rule="evenodd" d="M368.636 393.114C289.05 481.676 236.683 581.939 211.534 693.901C125.342 828.96 106.74 928.838 155.729 993.533C229.213 1090.58 340.24 1159.85 492.74 1065.26C627.548 981.653 472.314 929.203 597.573 851.514C893.178 668.172 695.252 515.891 857.072 438.937C1129.64 309.314 1300.5 754.064 1454.43 605.77C1608.36 457.476 1336.17 321.501 1229.9 150.069C1123.63 -21.3633 781.61 -6.50502 693.524 5.77795C605.437 18.0609 702.935 140.828 624.359 234.507C545.783 328.186 488.013 260.27 368.636 393.114Z" stroke="white"/>
<path fill-rule="evenodd" clip-rule="evenodd" d="M371.04 407.291C296.293 496.629 248.577 596.509 227.891 706.931C148.307 841.998 133.603 940.374 183.78 1002.06C259.045 1094.59 370.061 1158.68 515.915 1061.01C644.848 974.678 491.182 928.526 610.982 848.306C893.704 658.99 694.793 516.554 850.379 435.832C1112.45 299.863 1295.1 729.457 1440.48 579.175C1585.86 428.893 1314.87 304.896 1204.94 140.655C1095.01 -23.5858 761.003 2.37628 675.276 17.3393C589.549 32.3023 689.201 149.205 615.62 243.517C542.038 337.829 483.161 273.284 371.04 407.291Z" stroke="white"/>
<path fill-rule="evenodd" clip-rule="evenodd" d="M374.019 421.125C304.065 511.011 260.908 610.309 244.547 719.019C171.464 853.801 160.531 950.528 211.746 1009.2C288.57 1097.21 399.351 1156.21 538.533 1055.81C661.569 967.054 509.717 927.025 624.037 844.558C893.827 649.94 694.37 517.227 843.661 433.077C1095.13 291.334 1288.73 705.502 1425.61 553.645C1562.49 401.787 1293.21 289.513 1179.99 132.506C1066.76 -24.5018 741.113 12.0234 657.822 29.5171C574.531 47.0107 676.05 158.051 607.41 252.764C538.771 347.477 478.949 286.297 374.019 421.125Z" stroke="white"/>
<path fill-rule="evenodd" clip-rule="evenodd" d="M377.55 434.595C312.335 524.805 273.638 623.327 261.457 730.162C194.757 864.373 187.46 959.31 239.567 1014.97C317.727 1098.47 428.056 1152.47 560.557 1049.68C677.686 958.814 527.884 924.723 636.717 840.291C893.556 641.038 693.985 517.91 836.933 430.67C1077.72 283.723 1281.43 682.237 1409.88 529.21C1538.32 376.182 1271.23 275.359 1155.08 125.61C1038.94 -24.1394 721.968 22.3974 641.183 42.2703C560.399 62.1431 663.499 167.338 599.738 262.224C535.977 357.11 475.371 299.28 377.55 434.595Z" stroke="white"/>
<path fill-rule="evenodd" clip-rule="evenodd" d="M381.609 447.676C321.07 537.992 286.724 635.551 278.572 740.353C218.125 873.716 214.327 966.73 267.178 1019.4C346.455 1098.4 456.122 1147.51 581.948 1042.67C693.177 949.987 545.65 921.642 649 835.526C892.899 632.298 693.634 518.596 830.211 428.605C1060.26 277.023 1273.23 659.694 1393.33 505.896C1513.44 352.099 1249 262.432 1130.29 119.95C1011.58 -22.5327 703.59 33.4552 625.375 55.554C547.159 77.6529 651.56 177.029 592.604 271.866C533.647 366.703 472.418 312.203 381.609 447.676Z" stroke="white"/>
<path fill-rule="evenodd" clip-rule="evenodd" d="M386.174 460.348C330.236 550.555 300.127 646.97 295.848 749.593C241.511 881.838 241.068 972.804 294.52 1022.49C374.698 1097.02 483.499 1141.36 602.671 1034.8C708.018 940.607 562.981 917.806 660.866 830.284C891.869 623.736 693.318 519.285 823.509 426.879C1042.8 271.228 1264.18 637.907 1376.04 483.73C1487.91 329.554 1226.57 250.733 1105.66 115.509C984.755 -19.7146 686.005 45.1553 610.413 69.3256C534.821 93.496 640.245 187.095 586.011 281.666C531.778 376.237 470.081 325.036 386.174 460.348Z" stroke="white"/>
<path fill-rule="evenodd" clip-rule="evenodd" d="M391.224 472.594C339.804 562.485 313.81 657.582 313.241 757.885C264.861 888.753 267.627 977.553 321.538 1024.28C402.404 1094.38 510.142 1134.06 622.698 1026.13C722.196 930.713 579.852 913.246 672.301 824.591C890.478 615.37 693.04 519.979 816.846 425.49C1025.39 266.333 1254.32 616.91 1358.07 462.738C1461.82 308.565 1204.01 240.262 1081.26 112.272C958.509 -15.7179 669.238 57.4591 596.316 83.5454C523.395 109.632 629.569 197.506 579.966 291.6C530.363 385.693 468.354 337.757 391.224 472.594Z" stroke="white"/>
<path fill-rule="evenodd" clip-rule="evenodd" d="M396.734 484.397C349.741 573.769 327.732 667.382 330.706 765.234C288.121 894.474 293.943 980.997 348.173 1024.8C429.518 1090.51 536.004 1125.67 641.995 1016.68C735.69 920.338 596.23 907.99 683.288 818.472C888.74 607.215 692.799 520.675 810.237 424.434C1008.05 262.325 1243.69 596.734 1339.46 442.939C1435.24 289.144 1181.36 231.013 1057.13 110.217C932.893 -10.5797 653.306 70.3237 583.095 98.1697C512.884 126.016 619.54 208.23 574.468 301.641C529.395 395.053 467.223 350.339 396.734 484.397Z" stroke="white"/>
<path fill-rule="evenodd" clip-rule="evenodd" d="M402.676 495.735C360.01 584.391 341.85 676.36 348.196 771.64C311.231 899.012 319.955 983.155 374.367 1024.07C455.986 1085.44 561.039 1116.21 660.532 1006.5C748.483 909.514 612.087 902.061 693.808 811.946C886.665 599.28 692.591 521.366 803.692 423.7C990.833 259.19 1232.34 577.399 1320.3 424.346C1408.25 271.293 1158.7 222.975 1033.32 109.315C907.95 -4.34435 638.227 83.7007 570.758 113.15C503.289 142.599 610.165 219.229 569.514 311.76C528.862 404.29 466.675 362.75 402.676 495.735Z" stroke="white"/>
<path fill-rule="evenodd" clip-rule="evenodd" d="M409.027 506.598C370.58 594.348 356.127 684.522 365.67 777.117C334.142 902.389 345.609 984.059 400.07 1022.13C481.761 1079.23 585.208 1105.75 678.284 995.63C760.563 898.283 627.398 895.495 703.849 805.044C884.268 591.583 692.419 522.058 797.232 423.288C973.778 256.919 1220.32 558.938 1300.62 406.98C1380.93 255.022 1136.06 216.142 1009.9 109.547C883.728 2.95306 624.018 97.5524 559.316 128.448C494.614 159.343 601.454 230.478 565.105 321.936C528.757 413.393 466.699 374.972 409.027 506.598Z" stroke="white"/>
<path fill-rule="evenodd" clip-rule="evenodd" d="M415.76 516.968C381.415 603.63 370.522 691.864 383.082 781.67C356.8 904.623 370.848 983.734 425.227 1019C506.795 1071.9 608.47 1094.33 695.225 984.113C771.916 886.678 642.138 888.321 713.397 797.788C881.563 584.134 692.281 522.745 790.866 423.188C956.923 255.494 1207.67 541.37 1280.51 390.849C1353.35 240.329 1113.52 210.498 986.896 110.882C860.268 11.2659 610.693 111.831 548.774 144.016C486.855 176.202 593.409 241.939 561.239 332.139C529.069 422.34 467.278 386.976 415.76 516.968Z" stroke="white"/>
<path fill-rule="evenodd" clip-rule="evenodd" d="M423.375 527.219C392.949 612.572 385.361 698.656 400.609 785.473C379.247 905.807 395.579 982.182 449.605 1014.6C530.643 1063.22 630.182 1081.56 710.725 971.547C781.924 874.292 655.901 880.291 722.057 789.925C878.181 576.667 692.211 523.451 784.609 423.392C940.244 254.853 1193.54 524.062 1259.2 375.367C1324.86 226.673 1090.85 205.83 964.456 113.353C838.058 20.8765 599.007 127.036 539.945 160.403C480.883 193.77 586.63 254.016 558.437 342.733C530.244 431.449 469.015 399.191 423.375 527.219Z" stroke="white"/>
</g>
</svg>
