<svg xmlns="http://www.w3.org/2000/svg" width="100%" height="100%" viewBox="72 0 570 362" fill="none">
  <path d="M124.074 91.9072C124.074 93.557 123.625 94.8193 122.728 95.6943C121.834 96.5648 120.547 97 118.865 97H116.097V87.0059H119.159C120.713 87.0059 121.921 87.4365 122.782 88.2979C123.644 89.1592 124.074 90.3623 124.074 91.9072ZM122.844 91.9482C122.844 90.6449 122.516 89.6628 121.859 89.002C121.208 88.3411 120.237 88.0107 118.947 88.0107H117.259V95.9951H118.674C120.059 95.9951 121.101 95.6556 121.798 94.9766C122.495 94.293 122.844 93.2835 122.844 91.9482ZM127.273 97H126.139V89.5078H127.273V97ZM126.043 87.4775C126.043 87.2178 126.107 87.0286 126.234 86.9102C126.362 86.7871 126.521 86.7256 126.713 86.7256C126.895 86.7256 127.052 86.7871 127.185 86.9102C127.317 87.0332 127.383 87.2223 127.383 87.4775C127.383 87.7327 127.317 87.9242 127.185 88.0518C127.052 88.1748 126.895 88.2363 126.713 88.2363C126.521 88.2363 126.362 88.1748 126.234 88.0518C126.107 87.9242 126.043 87.7327 126.043 87.4775ZM134.513 94.9561C134.513 95.6533 134.253 96.1911 133.733 96.5693C133.214 96.9476 132.485 97.1367 131.546 97.1367C130.552 97.1367 129.778 96.9795 129.222 96.665V95.6123C129.582 95.7946 129.967 95.9382 130.377 96.043C130.792 96.1478 131.19 96.2002 131.573 96.2002C132.166 96.2002 132.621 96.1068 132.94 95.9199C133.259 95.7285 133.419 95.4391 133.419 95.0518C133.419 94.7601 133.291 94.5117 133.036 94.3066C132.785 94.097 132.293 93.8509 131.56 93.5684C130.862 93.3086 130.366 93.083 130.069 92.8916C129.778 92.6956 129.559 92.4746 129.413 92.2285C129.272 91.9824 129.201 91.6885 129.201 91.3467C129.201 90.736 129.45 90.2552 129.946 89.9043C130.443 89.5488 131.124 89.3711 131.99 89.3711C132.797 89.3711 133.585 89.5352 134.355 89.8633L133.952 90.7861C133.2 90.4762 132.519 90.3213 131.908 90.3213C131.37 90.3213 130.965 90.4056 130.691 90.5742C130.418 90.7428 130.281 90.9753 130.281 91.2715C130.281 91.472 130.331 91.6429 130.432 91.7842C130.536 91.9255 130.703 92.0599 130.931 92.1875C131.159 92.3151 131.596 92.4997 132.243 92.7412C133.132 93.0648 133.731 93.3906 134.041 93.7188C134.355 94.0469 134.513 94.4593 134.513 94.9561ZM139.359 97.1367C138.275 97.1367 137.434 96.804 136.837 96.1387C136.244 95.4688 135.948 94.5231 135.948 93.3018C135.948 92.0485 136.249 91.0801 136.851 90.3965C137.457 89.7129 138.318 89.3711 139.435 89.3711C139.795 89.3711 140.155 89.4098 140.515 89.4873C140.875 89.5648 141.157 89.6559 141.362 89.7607L141.014 90.7246C140.763 90.6243 140.49 90.5423 140.193 90.4785C139.897 90.4102 139.635 90.376 139.407 90.376C137.885 90.376 137.124 91.3467 137.124 93.2881C137.124 94.2087 137.309 94.915 137.678 95.4072C138.051 95.8994 138.603 96.1455 139.332 96.1455C139.956 96.1455 140.597 96.0111 141.253 95.7422V96.7471C140.752 97.0068 140.12 97.1367 139.359 97.1367ZM149.504 93.2471C149.504 94.4684 149.196 95.4232 148.581 96.1113C147.966 96.7949 147.116 97.1367 146.031 97.1367C145.361 97.1367 144.767 96.9795 144.247 96.665C143.728 96.3506 143.326 95.8994 143.044 95.3115C142.761 94.7236 142.62 94.0355 142.62 93.2471C142.62 92.0257 142.925 91.0755 143.536 90.3965C144.147 89.7129 144.994 89.3711 146.079 89.3711C147.127 89.3711 147.959 89.7197 148.574 90.417C149.194 91.1143 149.504 92.0576 149.504 93.2471ZM143.796 93.2471C143.796 94.2041 143.987 94.9333 144.37 95.4346C144.753 95.9359 145.316 96.1865 146.059 96.1865C146.801 96.1865 147.364 95.9382 147.747 95.4414C148.134 94.9401 148.328 94.2087 148.328 93.2471C148.328 92.2946 148.134 91.5723 147.747 91.0801C147.364 90.5833 146.797 90.335 146.045 90.335C145.302 90.335 144.742 90.5788 144.363 91.0664C143.985 91.554 143.796 92.2809 143.796 93.2471ZM153.141 97L150.297 89.5078H151.514L153.127 93.9512C153.492 94.9902 153.706 95.6647 153.77 95.9746H153.824C153.874 95.7331 154.032 95.234 154.296 94.4775C154.565 93.7165 155.164 92.0599 156.094 89.5078H157.311L154.467 97H153.141ZM161.679 97.1367C160.571 97.1367 159.696 96.7995 159.054 96.125C158.416 95.4505 158.097 94.514 158.097 93.3154C158.097 92.1077 158.393 91.1484 158.985 90.4375C159.582 89.7266 160.382 89.3711 161.385 89.3711C162.324 89.3711 163.066 89.681 163.613 90.3008C164.16 90.916 164.434 91.7295 164.434 92.7412V93.459H159.272C159.295 94.3385 159.516 95.0062 159.936 95.4619C160.359 95.9176 160.954 96.1455 161.72 96.1455C162.526 96.1455 163.324 95.9769 164.112 95.6396V96.6514C163.711 96.8245 163.331 96.9476 162.971 97.0205C162.615 97.098 162.185 97.1367 161.679 97.1367ZM161.371 90.3213C160.77 90.3213 160.289 90.5173 159.929 90.9092C159.573 91.3011 159.364 91.8434 159.3 92.5361H163.217C163.217 91.8206 163.057 91.2738 162.738 90.8955C162.419 90.5127 161.964 90.3213 161.371 90.3213ZM169.793 89.3711C170.126 89.3711 170.424 89.3984 170.688 89.4531L170.531 90.5059C170.221 90.4375 169.948 90.4033 169.711 90.4033C169.105 90.4033 168.585 90.6494 168.152 91.1416C167.724 91.6338 167.51 92.2467 167.51 92.9805V97H166.375V89.5078H167.312L167.441 90.8955H167.496C167.774 90.4079 168.109 90.0319 168.501 89.7676C168.893 89.5033 169.324 89.3711 169.793 89.3711ZM170.9 89.5078H172.117L173.758 93.7803C174.118 94.7555 174.341 95.4596 174.428 95.8926H174.482C174.542 95.6602 174.665 95.2637 174.852 94.7031C175.043 94.138 175.663 92.4062 176.711 89.5078H177.928L174.708 98.0391C174.389 98.8822 174.015 99.4792 173.587 99.8301C173.163 100.186 172.641 100.363 172.021 100.363C171.675 100.363 171.333 100.325 170.996 100.247V99.3379C171.247 99.3926 171.527 99.4199 171.837 99.4199C172.616 99.4199 173.172 98.9824 173.505 98.1074L173.922 97.041L170.9 89.5078ZM189.289 89.918C189.289 90.9297 188.943 91.709 188.25 92.2559C187.562 92.7982 186.575 93.0693 185.29 93.0693H184.114V97H182.952V87.0059H185.543C188.04 87.0059 189.289 87.9766 189.289 89.918ZM184.114 92.0713H185.16C186.19 92.0713 186.935 91.9049 187.396 91.5723C187.856 91.2396 188.086 90.7064 188.086 89.9727C188.086 89.3118 187.869 88.8197 187.437 88.4961C187.004 88.1725 186.329 88.0107 185.413 88.0107H184.114V92.0713ZM196.344 97V92.1533C196.344 91.5426 196.205 91.0869 195.927 90.7861C195.649 90.4854 195.214 90.335 194.621 90.335C193.833 90.335 193.256 90.5492 192.892 90.9775C192.532 91.4059 192.352 92.1077 192.352 93.083V97H191.217V86.3633H192.352V89.583C192.352 89.9704 192.333 90.2917 192.297 90.5469H192.365C192.589 90.1868 192.905 89.9043 193.315 89.6992C193.73 89.4896 194.202 89.3848 194.73 89.3848C195.646 89.3848 196.332 89.6035 196.788 90.041C197.248 90.474 197.479 91.1644 197.479 92.1123V97H196.344ZM204.424 97L204.198 95.9336H204.144C203.77 96.403 203.396 96.722 203.022 96.8906C202.653 97.0547 202.191 97.1367 201.635 97.1367C200.892 97.1367 200.309 96.9453 199.885 96.5625C199.465 96.1797 199.256 95.6351 199.256 94.9287C199.256 93.4157 200.466 92.6227 202.886 92.5498L204.157 92.5088V92.0439C204.157 91.4561 204.03 91.0231 203.774 90.7451C203.524 90.4626 203.12 90.3213 202.564 90.3213C201.94 90.3213 201.234 90.5127 200.445 90.8955L200.097 90.0273C200.466 89.8268 200.869 89.6696 201.307 89.5557C201.749 89.4417 202.191 89.3848 202.633 89.3848C203.526 89.3848 204.187 89.583 204.615 89.9795C205.048 90.376 205.265 91.0117 205.265 91.8867V97H204.424ZM201.86 96.2002C202.567 96.2002 203.12 96.0065 203.521 95.6191C203.927 95.2318 204.13 94.6895 204.13 93.9922V93.3154L202.995 93.3633C202.093 93.3952 201.441 93.5365 201.04 93.7871C200.644 94.0332 200.445 94.4183 200.445 94.9424C200.445 95.3525 200.568 95.6647 200.814 95.8789C201.065 96.0931 201.414 96.2002 201.86 96.2002ZM212.442 94.9561C212.442 95.6533 212.183 96.1911 211.663 96.5693C211.144 96.9476 210.414 97.1367 209.476 97.1367C208.482 97.1367 207.707 96.9795 207.151 96.665V95.6123C207.511 95.7946 207.896 95.9382 208.307 96.043C208.721 96.1478 209.12 96.2002 209.503 96.2002C210.095 96.2002 210.551 96.1068 210.87 95.9199C211.189 95.7285 211.349 95.4391 211.349 95.0518C211.349 94.7601 211.221 94.5117 210.966 94.3066C210.715 94.097 210.223 93.8509 209.489 93.5684C208.792 93.3086 208.295 93.083 207.999 92.8916C207.707 92.6956 207.489 92.4746 207.343 92.2285C207.201 91.9824 207.131 91.6885 207.131 91.3467C207.131 90.736 207.379 90.2552 207.876 89.9043C208.373 89.5488 209.054 89.3711 209.92 89.3711C210.727 89.3711 211.515 89.5352 212.285 89.8633L211.882 90.7861C211.13 90.4762 210.449 90.3213 209.838 90.3213C209.3 90.3213 208.895 90.4056 208.621 90.5742C208.348 90.7428 208.211 90.9753 208.211 91.2715C208.211 91.472 208.261 91.6429 208.361 91.7842C208.466 91.9255 208.632 92.0599 208.86 92.1875C209.088 92.3151 209.526 92.4997 210.173 92.7412C211.062 93.0648 211.661 93.3906 211.971 93.7188C212.285 94.0469 212.442 94.4593 212.442 94.9561ZM217.46 97.1367C216.353 97.1367 215.478 96.7995 214.835 96.125C214.197 95.4505 213.878 94.514 213.878 93.3154C213.878 92.1077 214.174 91.1484 214.767 90.4375C215.364 89.7266 216.163 89.3711 217.166 89.3711C218.105 89.3711 218.848 89.681 219.395 90.3008C219.941 90.916 220.215 91.7295 220.215 92.7412V93.459H215.054C215.076 94.3385 215.298 95.0062 215.717 95.4619C216.141 95.9176 216.735 96.1455 217.501 96.1455C218.308 96.1455 219.105 95.9769 219.894 95.6396V96.6514C219.493 96.8245 219.112 96.9476 218.752 97.0205C218.396 97.098 217.966 97.1367 217.46 97.1367ZM217.152 90.3213C216.551 90.3213 216.07 90.5173 215.71 90.9092C215.354 91.3011 215.145 91.8434 215.081 92.5361H218.998C218.998 91.8206 218.839 91.2738 218.52 90.8955C218.201 90.5127 217.745 90.3213 217.152 90.3213Z" fill="white"/>
  <path d="M299.826 144.056C299.826 145.067 299.479 145.847 298.786 146.394C298.098 146.936 297.112 147.207 295.827 147.207H294.651V151.138H293.489V141.144H296.079C298.577 141.144 299.826 142.114 299.826 144.056ZM294.651 146.209H295.697C296.727 146.209 297.472 146.043 297.932 145.71C298.392 145.377 298.622 144.844 298.622 144.11C298.622 143.45 298.406 142.957 297.973 142.634C297.54 142.31 296.866 142.148 295.95 142.148H294.651V146.209ZM308.22 147.385C308.22 148.606 307.912 149.561 307.297 150.249C306.682 150.933 305.832 151.274 304.747 151.274C304.078 151.274 303.483 151.117 302.963 150.803C302.444 150.488 302.043 150.037 301.76 149.449C301.478 148.861 301.336 148.173 301.336 147.385C301.336 146.163 301.642 145.213 302.252 144.534C302.863 143.851 303.711 143.509 304.795 143.509C305.843 143.509 306.675 143.857 307.29 144.555C307.91 145.252 308.22 146.195 308.22 147.385ZM302.512 147.385C302.512 148.342 302.703 149.071 303.086 149.572C303.469 150.074 304.032 150.324 304.775 150.324C305.518 150.324 306.08 150.076 306.463 149.579C306.851 149.078 307.044 148.346 307.044 147.385C307.044 146.432 306.851 145.71 306.463 145.218C306.08 144.721 305.513 144.473 304.761 144.473C304.018 144.473 303.458 144.716 303.079 145.204C302.701 145.692 302.512 146.419 302.512 147.385ZM314.666 142.039C313.568 142.039 312.7 142.406 312.062 143.14C311.428 143.869 311.112 144.869 311.112 146.141C311.112 147.449 311.417 148.46 312.028 149.176C312.643 149.887 313.518 150.242 314.653 150.242C315.35 150.242 316.145 150.117 317.038 149.866V150.885C316.346 151.145 315.491 151.274 314.475 151.274C313.003 151.274 311.866 150.828 311.064 149.935C310.266 149.041 309.868 147.772 309.868 146.127C309.868 145.097 310.059 144.195 310.442 143.42C310.829 142.645 311.385 142.048 312.11 141.629C312.839 141.21 313.696 141 314.68 141C315.728 141 316.644 141.191 317.428 141.574L316.936 142.572C316.179 142.217 315.423 142.039 314.666 142.039Z" fill="white"/>
  <path d="M391.117 207.28L387.727 198.421H387.672C387.736 199.123 387.768 199.957 387.768 200.923V207.28H386.695V197.286H388.445L391.61 205.53H391.664L394.857 197.286H396.593V207.28H395.431V200.841C395.431 200.103 395.463 199.3 395.527 198.435H395.472L392.054 207.28H391.117ZM405.049 197.286H406.3L402.698 207.28H401.549L397.967 197.286H399.198L401.494 203.753C401.759 204.496 401.968 205.218 402.123 205.92C402.287 205.182 402.502 204.446 402.766 203.712L405.049 197.286ZM414.018 200.198C414.018 201.21 413.671 201.989 412.979 202.536C412.291 203.078 411.304 203.35 410.019 203.35H408.843V207.28H407.681V197.286H410.272C412.769 197.286 414.018 198.257 414.018 200.198ZM408.843 202.352H409.889C410.919 202.352 411.664 202.185 412.124 201.853C412.585 201.52 412.815 200.987 412.815 200.253C412.815 199.592 412.598 199.1 412.165 198.776C411.732 198.453 411.058 198.291 410.142 198.291H408.843V202.352Z" fill="white"/>
  <path d="M471.724 263.423H470.562V254.461H467.397V253.429H474.889V254.461H471.724V263.423ZM479.394 263.56C478.286 263.56 477.411 263.223 476.769 262.548C476.131 261.874 475.812 260.937 475.812 259.739C475.812 258.531 476.108 257.572 476.701 256.861C477.298 256.15 478.097 255.794 479.1 255.794C480.039 255.794 480.782 256.104 481.328 256.724C481.875 257.339 482.149 258.153 482.149 259.164V259.882H476.988C477.01 260.762 477.231 261.429 477.651 261.885C478.075 262.341 478.669 262.569 479.435 262.569C480.242 262.569 481.039 262.4 481.828 262.063V263.074C481.426 263.248 481.046 263.371 480.686 263.444C480.33 263.521 479.9 263.56 479.394 263.56ZM479.086 256.744C478.485 256.744 478.004 256.94 477.644 257.332C477.288 257.724 477.079 258.267 477.015 258.959H480.932C480.932 258.244 480.773 257.697 480.453 257.319C480.134 256.936 479.679 256.744 479.086 256.744ZM487.084 263.56C486 263.56 485.159 263.227 484.562 262.562C483.969 261.892 483.673 260.946 483.673 259.725C483.673 258.472 483.974 257.503 484.576 256.82C485.182 256.136 486.043 255.794 487.16 255.794C487.52 255.794 487.88 255.833 488.24 255.91C488.6 255.988 488.882 256.079 489.087 256.184L488.739 257.148C488.488 257.047 488.215 256.965 487.918 256.902C487.622 256.833 487.36 256.799 487.132 256.799C485.61 256.799 484.849 257.77 484.849 259.711C484.849 260.632 485.034 261.338 485.403 261.83C485.776 262.323 486.328 262.569 487.057 262.569C487.681 262.569 488.322 262.434 488.978 262.165V263.17C488.477 263.43 487.845 263.56 487.084 263.56ZM495.889 263.423V258.576C495.889 257.966 495.75 257.51 495.472 257.209C495.194 256.908 494.759 256.758 494.166 256.758C493.378 256.758 492.801 256.972 492.437 257.401C492.077 257.829 491.897 258.531 491.897 259.506V263.423H490.762V252.786H491.897V256.006C491.897 256.393 491.879 256.715 491.842 256.97H491.911C492.134 256.61 492.451 256.327 492.861 256.122C493.275 255.913 493.747 255.808 494.276 255.808C495.192 255.808 495.878 256.027 496.333 256.464C496.794 256.897 497.024 257.587 497.024 258.535V263.423H495.889ZM504.489 263.423V258.576C504.489 257.966 504.35 257.51 504.072 257.209C503.794 256.908 503.358 256.758 502.766 256.758C501.982 256.758 501.408 256.97 501.043 257.394C500.679 257.818 500.496 258.517 500.496 259.492V263.423H499.362V255.931H500.285L500.469 256.956H500.524C500.756 256.587 501.082 256.302 501.501 256.102C501.921 255.897 502.388 255.794 502.903 255.794C503.805 255.794 504.484 256.013 504.94 256.45C505.396 256.883 505.623 257.578 505.623 258.535V263.423H504.489ZM509.096 263.423H507.961V255.931H509.096V263.423ZM507.866 253.901C507.866 253.641 507.929 253.452 508.057 253.333C508.185 253.21 508.344 253.149 508.536 253.149C508.718 253.149 508.875 253.21 509.007 253.333C509.139 253.456 509.205 253.645 509.205 253.901C509.205 254.156 509.139 254.347 509.007 254.475C508.875 254.598 508.718 254.659 508.536 254.659C508.344 254.659 508.185 254.598 508.057 254.475C507.929 254.347 507.866 254.156 507.866 253.901ZM514.496 263.56C513.412 263.56 512.571 263.227 511.974 262.562C511.382 261.892 511.085 260.946 511.085 259.725C511.085 258.472 511.386 257.503 511.988 256.82C512.594 256.136 513.455 255.794 514.572 255.794C514.932 255.794 515.292 255.833 515.652 255.91C516.012 255.988 516.294 256.079 516.499 256.184L516.151 257.148C515.9 257.047 515.627 256.965 515.33 256.902C515.034 256.833 514.772 256.799 514.544 256.799C513.022 256.799 512.261 257.77 512.261 259.711C512.261 260.632 512.446 261.338 512.815 261.83C513.189 262.323 513.74 262.569 514.469 262.569C515.093 262.569 515.734 262.434 516.39 262.165V263.17C515.889 263.43 515.258 263.56 514.496 263.56ZM522.782 263.423L522.556 262.357H522.501C522.128 262.826 521.754 263.145 521.38 263.314C521.011 263.478 520.549 263.56 519.993 263.56C519.25 263.56 518.666 263.368 518.243 262.986C517.823 262.603 517.614 262.058 517.614 261.352C517.614 259.839 518.824 259.046 521.244 258.973L522.515 258.932V258.467C522.515 257.879 522.387 257.446 522.132 257.168C521.882 256.886 521.478 256.744 520.922 256.744C520.298 256.744 519.592 256.936 518.803 257.319L518.454 256.45C518.824 256.25 519.227 256.093 519.664 255.979C520.106 255.865 520.549 255.808 520.991 255.808C521.884 255.808 522.545 256.006 522.973 256.403C523.406 256.799 523.622 257.435 523.622 258.31V263.423H522.782ZM520.218 262.623C520.925 262.623 521.478 262.43 521.879 262.042C522.285 261.655 522.488 261.113 522.488 260.415V259.739L521.353 259.786C520.451 259.818 519.799 259.96 519.398 260.21C519.001 260.456 518.803 260.841 518.803 261.365C518.803 261.776 518.926 262.088 519.172 262.302C519.423 262.516 519.772 262.623 520.218 262.623ZM527.102 263.423H525.967V252.786H527.102V263.423ZM536.392 263.423H535.23V254.461H532.065V253.429H539.557V254.461H536.392V263.423ZM544.062 263.56C542.954 263.56 542.079 263.223 541.437 262.548C540.799 261.874 540.48 260.937 540.48 259.739C540.48 258.531 540.776 257.572 541.369 256.861C541.966 256.15 542.765 255.794 543.768 255.794C544.707 255.794 545.45 256.104 545.996 256.724C546.543 257.339 546.817 258.153 546.817 259.164V259.882H541.656C541.678 260.762 541.899 261.429 542.319 261.885C542.743 262.341 543.337 262.569 544.103 262.569C544.91 262.569 545.707 262.4 546.495 262.063V263.074C546.094 263.248 545.714 263.371 545.354 263.444C544.998 263.521 544.568 263.56 544.062 263.56ZM543.754 256.744C543.153 256.744 542.672 256.94 542.312 257.332C541.956 257.724 541.747 258.267 541.683 258.959H545.6C545.6 258.244 545.44 257.697 545.121 257.319C544.802 256.936 544.347 256.744 543.754 256.744ZM553.366 263.423L553.14 262.357H553.085C552.712 262.826 552.338 263.145 551.964 263.314C551.595 263.478 551.133 263.56 550.577 263.56C549.834 263.56 549.25 263.368 548.827 262.986C548.407 262.603 548.198 262.058 548.198 261.352C548.198 259.839 549.408 259.046 551.828 258.973L553.099 258.932V258.467C553.099 257.879 552.971 257.446 552.716 257.168C552.466 256.886 552.062 256.744 551.506 256.744C550.882 256.744 550.175 256.936 549.387 257.319L549.038 256.45C549.408 256.25 549.811 256.093 550.248 255.979C550.69 255.865 551.133 255.808 551.575 255.808C552.468 255.808 553.129 256.006 553.557 256.403C553.99 256.799 554.206 257.435 554.206 258.31V263.423H553.366ZM550.802 262.623C551.509 262.623 552.062 262.43 552.463 262.042C552.869 261.655 553.072 261.113 553.072 260.415V259.739L551.937 259.786C551.035 259.818 550.383 259.96 549.982 260.21C549.585 260.456 549.387 260.841 549.387 261.365C549.387 261.776 549.51 262.088 549.756 262.302C550.007 262.516 550.356 262.623 550.802 262.623ZM566.101 263.423V258.549C566.101 257.952 565.973 257.505 565.718 257.209C565.463 256.908 565.066 256.758 564.529 256.758C563.822 256.758 563.3 256.961 562.963 257.366C562.626 257.772 562.457 258.396 562.457 259.24V263.423H561.323V258.549C561.323 257.952 561.195 257.505 560.94 257.209C560.685 256.908 560.286 256.758 559.744 256.758C559.033 256.758 558.511 256.972 558.178 257.401C557.85 257.824 557.686 258.522 557.686 259.492V263.423H556.551V255.931H557.474L557.659 256.956H557.713C557.927 256.592 558.228 256.307 558.616 256.102C559.008 255.897 559.445 255.794 559.928 255.794C561.099 255.794 561.865 256.218 562.225 257.066H562.28C562.503 256.674 562.827 256.364 563.25 256.136C563.674 255.908 564.157 255.794 564.7 255.794C565.547 255.794 566.181 256.013 566.6 256.45C567.024 256.883 567.236 257.578 567.236 258.535V263.423H566.101ZM579.028 260.764C579.028 261.643 578.709 262.329 578.071 262.822C577.433 263.314 576.567 263.56 575.473 263.56C574.288 263.56 573.377 263.407 572.739 263.102V261.981C573.149 262.154 573.595 262.291 574.078 262.391C574.562 262.491 575.04 262.541 575.514 262.541C576.289 262.541 576.872 262.395 577.264 262.104C577.656 261.808 577.852 261.397 577.852 260.873C577.852 260.527 577.781 260.244 577.64 260.026C577.503 259.802 577.271 259.597 576.943 259.41C576.619 259.224 576.125 259.012 575.459 258.775C574.53 258.442 573.864 258.048 573.463 257.592C573.067 257.136 572.869 256.542 572.869 255.808C572.869 255.038 573.158 254.425 573.737 253.969C574.315 253.513 575.081 253.285 576.034 253.285C577.027 253.285 577.941 253.468 578.775 253.832L578.412 254.844C577.588 254.498 576.786 254.324 576.006 254.324C575.391 254.324 574.91 254.457 574.564 254.721C574.217 254.985 574.044 255.352 574.044 255.822C574.044 256.168 574.108 256.453 574.236 256.676C574.363 256.895 574.578 257.098 574.878 257.284C575.184 257.467 575.648 257.67 576.273 257.893C577.321 258.267 578.041 258.668 578.433 259.096C578.829 259.524 579.028 260.08 579.028 260.764ZM583.895 263.56C582.81 263.56 581.969 263.227 581.372 262.562C580.78 261.892 580.484 260.946 580.484 259.725C580.484 258.472 580.785 257.503 581.386 256.82C581.992 256.136 582.854 255.794 583.97 255.794C584.33 255.794 584.69 255.833 585.05 255.91C585.41 255.988 585.693 256.079 585.898 256.184L585.549 257.148C585.299 257.047 585.025 256.965 584.729 256.902C584.433 256.833 584.171 256.799 583.943 256.799C582.421 256.799 581.66 257.77 581.66 259.711C581.66 260.632 581.844 261.338 582.213 261.83C582.587 262.323 583.138 262.569 583.868 262.569C584.492 262.569 585.132 262.434 585.788 262.165V263.17C585.287 263.43 584.656 263.56 583.895 263.56ZM592.18 263.423L591.954 262.357H591.9C591.526 262.826 591.152 263.145 590.779 263.314C590.41 263.478 589.947 263.56 589.391 263.56C588.648 263.56 588.065 263.368 587.641 262.986C587.222 262.603 587.012 262.058 587.012 261.352C587.012 259.839 588.222 259.046 590.642 258.973L591.913 258.932V258.467C591.913 257.879 591.786 257.446 591.531 257.168C591.28 256.886 590.877 256.744 590.321 256.744C589.696 256.744 588.99 256.936 588.202 257.319L587.853 256.45C588.222 256.25 588.625 256.093 589.063 255.979C589.505 255.865 589.947 255.808 590.389 255.808C591.282 255.808 591.943 256.006 592.371 256.403C592.804 256.799 593.021 257.435 593.021 258.31V263.423H592.18ZM589.617 262.623C590.323 262.623 590.877 262.43 591.278 262.042C591.683 261.655 591.886 261.113 591.886 260.415V259.739L590.751 259.786C589.849 259.818 589.197 259.96 588.796 260.21C588.4 260.456 588.202 260.841 588.202 261.365C588.202 261.776 588.325 262.088 588.571 262.302C588.821 262.516 589.17 262.623 589.617 262.623ZM596.5 263.423H595.366V252.786H596.5V263.423ZM600.041 263.423H598.907V255.931H600.041V263.423ZM598.811 253.901C598.811 253.641 598.875 253.452 599.002 253.333C599.13 253.21 599.289 253.149 599.481 253.149C599.663 253.149 599.82 253.21 599.953 253.333C600.085 253.456 600.151 253.645 600.151 253.901C600.151 254.156 600.085 254.347 599.953 254.475C599.82 254.598 599.663 254.659 599.481 254.659C599.289 254.659 599.13 254.598 599.002 254.475C598.875 254.347 598.811 254.156 598.811 253.901ZM607.575 263.423V258.576C607.575 257.966 607.436 257.51 607.158 257.209C606.88 256.908 606.444 256.758 605.852 256.758C605.068 256.758 604.494 256.97 604.129 257.394C603.765 257.818 603.582 258.517 603.582 259.492V263.423H602.448V255.931H603.37L603.555 256.956H603.61C603.842 256.587 604.168 256.302 604.587 256.102C605.007 255.897 605.474 255.794 605.989 255.794C606.891 255.794 607.57 256.013 608.026 256.45C608.481 256.883 608.709 257.578 608.709 258.535V263.423H607.575ZM617.179 255.931V256.649L615.791 256.813C615.919 256.972 616.033 257.182 616.133 257.442C616.233 257.697 616.284 257.986 616.284 258.31C616.284 259.044 616.033 259.629 615.532 260.067C615.03 260.504 614.342 260.723 613.467 260.723C613.244 260.723 613.034 260.705 612.838 260.668C612.355 260.923 612.114 261.245 612.114 261.632C612.114 261.837 612.198 261.99 612.367 262.09C612.535 262.186 612.825 262.234 613.235 262.234H614.561C615.372 262.234 615.994 262.405 616.427 262.746C616.865 263.088 617.083 263.585 617.083 264.237C617.083 265.066 616.751 265.697 616.085 266.13C615.42 266.568 614.449 266.786 613.173 266.786C612.193 266.786 611.437 266.604 610.904 266.24C610.375 265.875 610.111 265.36 610.111 264.695C610.111 264.239 610.257 263.845 610.548 263.512C610.84 263.179 611.25 262.954 611.779 262.835C611.587 262.749 611.425 262.614 611.293 262.432C611.166 262.25 611.102 262.038 611.102 261.796C611.102 261.523 611.175 261.283 611.321 261.078C611.467 260.873 611.697 260.675 612.011 260.484C611.624 260.324 611.307 260.053 611.061 259.67C610.819 259.287 610.699 258.85 610.699 258.358C610.699 257.537 610.945 256.906 611.437 256.464C611.929 256.017 612.626 255.794 613.529 255.794C613.921 255.794 614.274 255.84 614.588 255.931H617.179ZM611.204 264.681C611.204 265.087 611.375 265.394 611.717 265.604C612.059 265.813 612.549 265.918 613.187 265.918C614.139 265.918 614.843 265.775 615.299 265.488C615.759 265.205 615.99 264.82 615.99 264.332C615.99 263.927 615.864 263.644 615.614 263.485C615.363 263.33 614.891 263.252 614.199 263.252H612.838C612.323 263.252 611.922 263.375 611.635 263.621C611.348 263.867 611.204 264.221 611.204 264.681ZM611.82 258.33C611.82 258.854 611.968 259.251 612.264 259.52C612.56 259.789 612.973 259.923 613.501 259.923C614.609 259.923 615.162 259.385 615.162 258.31C615.162 257.184 614.602 256.621 613.481 256.621C612.948 256.621 612.537 256.765 612.25 257.052C611.963 257.339 611.82 257.765 611.82 258.33Z" fill="white"/>
</svg>