<svg width="100%" height="100%" viewBox="0 0 1440 531" fill="none" xmlns="http://www.w3.org/2000/svg">
<g opacity="0.1">
<path fill-rule="evenodd" clip-rule="evenodd" d="M631.431 29.5215C499.742 20.6466 376.59 43.3256 261.976 97.5586C85.3252 114.535 -14.2837 166.239 -36.8512 252.672C-70.7023 382.321 -54.6066 525.671 132.435 593.698C297.777 653.833 236.673 483.567 390.304 539.442C752.863 671.306 749.198 396.204 927.32 484.29C1227.35 632.661 958.165 1082.93 1192.88 1115.72C1427.6 1148.51 1358.71 820.066 1434.69 611.457C1510.68 402.847 1262.67 116.287 1191.45 48.228C1120.23 -19.8305 1080.52 148.119 945.077 143.595C809.633 139.07 828.966 42.8338 631.431 29.5215Z" stroke="white"/>
<path fill-rule="evenodd" clip-rule="evenodd" d="M620.528 40.6035C491.19 36.4591 371.285 62.9721 260.813 120.143C88.2939 142.914 -7.55998 197.085 -26.7486 282.653C-55.5316 411.007 -34.9098 551.07 150.667 611.322C314.715 664.585 249.08 499.678 401.508 549.168C761.229 665.961 748.33 396.225 925.846 476.463C1224.85 611.617 976.324 1062.64 1207.42 1086.67C1438.52 1110.71 1359.91 790.904 1427.3 583.634C1494.7 376.365 1241.99 103.851 1169.9 39.5555C1097.81 -24.7401 1064.59 141.387 931.718 141.64C798.848 141.894 814.535 46.82 620.528 40.6035Z" stroke="white"/>
<path fill-rule="evenodd" clip-rule="evenodd" d="M610.264 51.9609C483.445 52.3722 366.901 82.521 260.635 142.407C92.4329 170.708 0.382633 227.146 -15.5155 311.723C-39.3628 438.588 -14.4245 575.226 169.377 627.891C331.856 674.446 261.989 515.002 412.959 558.26C769.239 660.346 747.476 396.277 924.058 468.819C1221.5 591.011 993.338 1041.9 1220.5 1057.47C1447.66 1073.05 1359.84 762.154 1418.84 556.565C1477.83 350.975 1221.1 92.4802 1148.31 31.9237C1075.53 -28.6328 1048.61 135.428 918.478 140.274C788.348 145.12 800.494 51.3441 610.264 51.9609Z" stroke="white"/>
<path fill-rule="evenodd" clip-rule="evenodd" d="M600.646 63.5732C476.502 68.3594 363.426 101.943 261.418 164.323C97.704 197.879 9.49671 256.388 -3.20404 339.849C-22.2552 465.041 6.78629 598.127 188.513 643.403C349.158 683.427 275.359 529.535 424.625 566.724C776.884 654.487 746.636 396.369 921.969 461.38C1217.3 570.887 1009.2 1020.79 1232.12 1028.2C1455.04 1035.62 1358.54 733.88 1409.33 530.298C1460.13 326.717 1200.03 82.1838 1126.72 25.335C1053.41 -31.5139 1032.62 130.248 905.381 139.496C778.146 148.744 786.863 56.394 600.646 63.5732Z" stroke="white"/>
<path fill-rule="evenodd" clip-rule="evenodd" d="M591.679 75.4004C470.359 84.3755 360.844 121.189 263.137 185.84C104.069 224.375 19.7352 284.756 10.1343 366.984C-4.26709 490.325 28.6605 619.744 208.026 657.84C366.583 691.518 289.152 543.256 436.478 574.548C784.158 648.395 745.814 396.491 919.591 454.149C1212.3 551.269 1023.9 999.34 1242.3 998.912C1460.69 998.484 1356.03 706.122 1398.84 504.865C1441.65 303.609 1178.85 72.9508 1105.18 19.7709C1031.52 -33.4091 1016.65 125.83 892.453 139.284C768.259 152.739 773.661 61.9378 591.679 75.4004Z" stroke="white"/>
<path fill-rule="evenodd" clip-rule="evenodd" d="M583.366 87.4195C465.007 100.393 359.14 140.229 265.764 206.93C111.487 250.161 31.0475 312.217 24.4445 393.099C14.5401 514.421 51.1339 640.066 227.862 671.205C384.087 698.731 303.326 556.161 448.486 581.738C791.054 642.097 745.01 396.651 916.935 447.145C1206.53 532.196 1037.44 977.624 1251.04 969.678C1464.63 961.733 1352.36 678.939 1387.41 480.31C1422.46 281.682 1157.59 64.7846 1083.74 15.2276C1009.88 -34.3293 1000.73 122.175 879.717 139.635C758.7 157.096 760.904 67.9599 583.366 87.4195Z" stroke="white"/>
<path fill-rule="evenodd" clip-rule="evenodd" d="M575.709 99.5911C460.44 116.367 358.295 159.019 269.272 227.546C119.917 275.187 43.3834 338.722 39.6725 418.152C34.1061 537.295 74.1437 659.071 247.971 683.483C401.633 705.063 317.843 568.233 460.62 588.284C797.567 635.603 744.226 396.839 914.015 440.369C1200.01 513.691 1049.82 955.685 1258.37 940.555C1466.91 925.426 1347.55 652.368 1375.08 456.659C1402.6 260.951 1136.31 57.6702 1062.43 11.6833C988.546 -34.3035 984.912 119.266 867.197 140.527C749.482 161.788 748.612 74.4274 575.709 99.5911Z" stroke="white"/>
<path fill-rule="evenodd" clip-rule="evenodd" d="M568.708 111.889C456.647 132.269 358.288 177.525 273.631 247.66C129.313 299.422 56.689 364.24 55.7605 442.116C54.3679 558.929 97.6247 676.753 268.302 694.679C419.179 710.525 332.661 579.468 472.85 594.191C803.691 628.938 743.462 397.059 910.843 433.837C1192.78 495.786 1061.04 933.582 1264.3 911.612C1467.56 889.641 1341.66 626.461 1361.91 433.949C1382.16 241.437 1115.05 51.6041 1041.3 9.12764C967.547 -33.3488 969.212 117.095 854.913 141.949C740.615 166.802 736.799 81.3206 568.708 111.889Z" stroke="white"/>
<path fill-rule="evenodd" clip-rule="evenodd" d="M562.362 124.284C453.618 148.064 359.101 195.715 278.81 267.237C139.63 322.828 70.9104 388.737 72.6514 464.964C75.2629 579.304 121.513 693.102 288.804 704.792C436.687 715.125 347.738 589.862 485.146 599.463C809.422 622.122 742.72 397.311 907.432 427.558C1184.87 478.508 1071.11 911.371 1268.86 882.909C1466.61 854.447 1334.71 601.261 1347.94 412.21C1361.17 223.158 1093.86 46.5762 1020.39 7.54402C946.925 -31.4882 953.666 115.652 842.889 143.886C732.111 172.12 725.478 88.6145 562.362 124.284Z" stroke="white"/>
<path fill-rule="evenodd" clip-rule="evenodd" d="M556.669 136.741C451.339 163.716 360.708 213.55 284.776 286.243C150.822 345.368 85.9924 412.176 90.2865 486.665C96.7278 598.398 145.744 708.109 309.425 713.821C454.118 718.87 363.035 599.406 497.479 604.097C814.758 615.169 742.001 397.589 903.797 421.538C1176.33 461.879 1080.02 889.101 1272.07 854.504C1464.11 819.906 1326.75 576.806 1333.23 391.464C1339.71 206.123 1072.79 42.5699 999.755 6.90937C926.718 -28.7512 938.306 114.918 831.143 146.319C723.98 177.72 714.663 96.2793 556.669 136.741Z" stroke="white"/>
<path fill-rule="evenodd" clip-rule="evenodd" d="M551.626 149.23C449.798 179.191 363.088 230.996 291.495 304.645C162.842 367.011 101.879 434.528 108.607 507.196C118.699 616.197 170.253 721.77 330.116 721.77C471.434 721.77 378.512 608.099 509.819 608.099C819.697 608.099 741.306 397.892 899.952 415.784C1167.18 445.922 1087.8 866.825 1273.95 826.455C1460.11 786.084 1317.83 553.134 1317.83 371.738C1317.83 190.343 1051.88 39.5707 979.422 7.20311C906.96 -25.1645 923.162 114.88 819.697 149.23C716.232 183.58 704.367 104.289 551.626 149.23Z" stroke="white"/>
<path fill-rule="evenodd" clip-rule="evenodd" d="M547.228 161.726C448.979 194.463 366.215 248.028 298.934 322.42C175.639 387.731 118.512 455.771 127.553 526.541C141.114 632.696 194.978 734.09 350.828 728.652C488.598 723.844 394.127 615.945 522.138 611.478C824.237 600.936 740.636 398.224 895.91 410.308C1157.45 430.663 1094.44 844.6 1274.54 798.823C1454.65 753.047 1307.99 530.287 1301.79 353.058C1295.6 175.829 1031.18 37.5663 959.435 8.40713C887.687 -20.752 908.264 115.525 808.569 152.606C708.874 189.687 694.6 112.62 547.228 161.726Z" stroke="white"/>
<path fill-rule="evenodd" clip-rule="evenodd" d="M543.468 174.197C448.866 209.498 370.062 264.612 307.055 339.54C189.165 407.499 135.834 475.879 147.063 544.681C163.906 647.883 219.854 745.07 371.51 734.473C505.572 725.105 409.841 622.944 534.407 614.239C828.377 593.698 739.993 398.581 891.687 405.115C1147.2 416.121 1099.97 822.475 1273.87 771.665C1447.78 720.855 1297.27 508.3 1285.18 335.442C1273.08 162.584 1010.73 36.5375 939.832 10.4967C868.931 -15.5441 893.64 116.835 797.777 156.427C701.914 196.019 685.371 121.245 543.468 174.197Z" stroke="white"/>
<path fill-rule="evenodd" clip-rule="evenodd" d="M540.34 186.609C449.441 224.26 374.602 280.715 315.824 355.973C203.369 426.286 153.787 494.826 167.077 561.595C187.013 661.748 244.818 754.709 392.115 739.238C522.324 725.563 425.613 629.093 546.599 616.386C832.119 586.399 739.377 398.958 887.298 400.206C1136.46 402.308 1104.39 800.497 1271.98 745.027C1439.56 689.558 1285.73 487.198 1268.03 318.902C1250.33 150.607 990.574 36.4583 920.65 13.4403C850.725 -9.57763 879.32 118.786 787.34 160.668C695.359 202.549 676.69 130.132 540.34 186.609Z" stroke="white"/>
<path fill-rule="evenodd" clip-rule="evenodd" d="M537.834 198.941C450.683 238.729 379.805 296.316 325.199 371.703C218.197 444.075 172.308 512.6 187.533 577.278C210.37 674.296 269.806 763.021 412.593 742.969C538.815 725.243 441.404 634.404 558.685 617.934C835.462 579.064 738.788 399.359 882.756 395.592C1125.26 389.247 1107.73 778.721 1268.89 718.969C1430.04 659.218 1273.42 467.02 1250.41 303.461C1227.41 139.902 970.75 37.3136 901.923 17.218C833.097 -2.87762 865.328 121.364 777.271 165.315C689.214 209.266 668.561 139.259 537.834 198.941Z" stroke="white"/>
<path fill-rule="evenodd" clip-rule="evenodd" d="M535.941 211.159C452.574 252.87 385.642 311.384 335.145 386.704C233.598 460.842 191.34 529.18 208.369 591.717C233.914 685.522 294.758 770.015 432.899 745.675C555.014 724.159 457.174 638.881 570.639 618.889C838.411 571.708 738.227 399.779 878.078 391.275C1113.64 376.95 1110.01 757.192 1264.64 693.537C1419.27 629.883 1260.37 447.788 1232.38 289.125C1204.38 130.462 951.299 39.0756 883.688 21.7969C816.076 4.51831 851.691 124.546 767.587 170.344C683.482 216.143 660.991 148.594 535.941 211.159Z" stroke="white"/>
<path fill-rule="evenodd" clip-rule="evenodd" d="M534.785 223.877C455.212 267.224 392.176 326.338 345.676 401.221C249.543 476.687 210.81 544.508 229.477 604.684C257.478 694.947 319.454 774.967 452.829 746.639C570.73 721.597 472.786 642.068 582.335 618.8C840.867 563.888 737.704 400.259 873.277 387.256C1101.64 365.354 1111.02 734.873 1259.08 667.792C1407.14 600.712 1246.59 429.198 1214 276.01C1181.42 122.822 932.453 42.6216 866.183 28.1278C799.914 13.6341 838.588 129.031 758.437 176.374C678.287 223.717 654.144 158.857 534.785 223.877Z" stroke="white"/>
</g>
</svg>
